<svg width="80" height="80" viewBox="0 0 80 80" fill="none" xmlns="http://www.w3.org/2000/svg">
<g clip-path="url(#clip0_1_8)">
<path d="M80 0H0V80H80V0Z" fill="#252F3E"/>
<path d="M24.9938 36.8904C24.9938 37.7342 25.085 38.4183 25.2446 38.9199C25.427 39.4216 25.6551 39.9689 25.9743 40.5617C26.0883 40.7442 26.1339 40.9266 26.1339 41.0862C26.1339 41.3142 25.9971 41.5423 25.7007 41.7703L24.2641 42.728C24.0589 42.8649 23.8536 42.9333 23.6712 42.9333C23.4432 42.9333 23.2151 42.8193 22.9871 42.614C22.6679 42.272 22.3942 41.9071 22.1662 41.5423C21.9382 41.1546 21.7101 40.7214 21.4593 40.1969C19.6807 42.2948 17.446 43.3437 14.7552 43.3437C12.8397 43.3437 11.3119 42.7965 10.1946 41.7019C9.0772 40.6074 8.50713 39.148 8.50713 37.3237C8.50713 35.3854 9.19122 33.812 10.5822 32.6263C11.9732 31.4405 13.8203 30.8476 16.169 30.8476C16.9443 30.8476 17.7424 30.916 18.5861 31.03C19.4298 31.1441 20.2963 31.3265 21.2085 31.5317V29.8671C21.2085 28.134 20.8436 26.9255 20.1367 26.2186C19.407 25.5117 18.1756 25.1696 16.4198 25.1696C15.6217 25.1696 14.8008 25.2608 13.9571 25.4661C13.1134 25.6713 12.2924 25.9221 11.4943 26.2414C11.1295 26.401 10.8558 26.4922 10.6962 26.5378C10.5366 26.5834 10.4226 26.6062 10.3314 26.6062C10.0121 26.6062 9.85251 26.3782 9.85251 25.8993V24.782C9.85251 24.4171 9.89812 24.1435 10.0121 23.9839C10.1261 23.8243 10.3314 23.6646 10.6506 23.505C11.4487 23.0946 12.4065 22.7525 13.5238 22.4789C14.6412 22.1824 15.8269 22.0456 17.0811 22.0456C19.7947 22.0456 21.7785 22.6613 23.0555 23.8927C24.3097 25.124 24.9482 26.9939 24.9482 29.5022V36.8904H24.9938ZM15.7357 40.3565C16.4882 40.3565 17.2635 40.2197 18.0844 39.9461C18.9054 39.6724 19.6351 39.1708 20.2507 38.4867C20.6156 38.0534 20.8892 37.5745 21.026 37.0273C21.1629 36.48 21.2541 35.8187 21.2541 35.0434V34.0857C20.5928 33.926 19.8859 33.7892 19.1562 33.698C18.4265 33.6068 17.7196 33.5612 17.0127 33.5612C15.4849 33.5612 14.3675 33.8576 13.615 34.4733C12.8625 35.089 12.4977 35.9555 12.4977 37.0957C12.4977 38.1674 12.7713 38.9655 13.3414 39.5128C13.8887 40.0829 14.6868 40.3565 15.7357 40.3565ZM34.0466 42.8193C33.6362 42.8193 33.3625 42.7508 33.1801 42.5912C32.9977 42.4544 32.8381 42.1352 32.7012 41.7019L27.3425 24.0751C27.2057 23.619 27.1373 23.3226 27.1373 23.163C27.1373 22.7981 27.3197 22.5929 27.6846 22.5929H29.9193C30.3525 22.5929 30.649 22.6613 30.8086 22.8209C30.991 22.9577 31.1278 23.277 31.2646 23.7102L35.0956 38.8059L38.6529 23.7102C38.7669 23.2542 38.9037 22.9577 39.0861 22.8209C39.2685 22.6841 39.5878 22.5929 39.9982 22.5929H41.8225C42.2557 22.5929 42.5522 22.6613 42.7346 22.8209C42.917 22.9577 43.0767 23.277 43.1679 23.7102L46.7708 38.9883L50.7157 23.7102C50.8525 23.2542 51.0121 22.9577 51.1718 22.8209C51.3542 22.6841 51.6506 22.5929 52.0611 22.5929H54.1818C54.5466 22.5929 54.7519 22.7753 54.7519 23.163C54.7519 23.277 54.7291 23.391 54.7063 23.5278C54.6834 23.6646 54.6378 23.8471 54.5466 24.0979L49.0511 41.7247C48.9143 42.1808 48.7546 42.4772 48.5722 42.614C48.3898 42.7508 48.0933 42.8421 47.7057 42.8421H45.7446C45.3114 42.8421 45.0149 42.7736 44.8325 42.614C44.6501 42.4544 44.4905 42.158 44.3992 41.7019L40.8648 26.9939L37.3531 41.6791C37.2391 42.1352 37.1022 42.4316 36.9198 42.5912C36.7374 42.7508 36.4181 42.8193 36.0077 42.8193H34.0466ZM63.3486 43.4349C62.1629 43.4349 60.9771 43.2981 59.837 43.0245C58.6968 42.7508 57.8075 42.4544 57.2146 42.1124C56.8497 41.9071 56.5989 41.6791 56.5077 41.4739C56.4165 41.2686 56.3709 41.0406 56.3709 40.8354V39.6724C56.3709 39.1936 56.5533 38.9655 56.8954 38.9655C57.0322 38.9655 57.169 38.9883 57.3058 39.0339C57.4426 39.0795 57.6479 39.1708 57.8759 39.262C58.6512 39.604 59.4949 39.8777 60.3842 40.0601C61.2964 40.2425 62.1857 40.3337 63.0978 40.3337C64.5344 40.3337 65.6518 40.0829 66.4271 39.5812C67.2024 39.0795 67.6128 38.3498 67.6128 37.4149C67.6128 36.7764 67.4076 36.252 66.9971 35.8187C66.5867 35.3854 65.8114 34.9978 64.694 34.6329L61.3876 33.6068C59.7229 33.0823 58.4916 32.307 57.7391 31.2809C56.9866 30.2775 56.5989 29.1602 56.5989 27.9744C56.5989 27.0167 56.8041 26.173 57.2146 25.4433C57.6251 24.7136 58.1723 24.0751 58.8564 23.5734C59.5405 23.0489 60.3158 22.6613 61.2279 22.3877C62.1401 22.114 63.0978 22 64.1011 22C64.6028 22 65.1273 22.0228 65.6289 22.0912C66.1534 22.1596 66.6323 22.2508 67.1112 22.342C67.5672 22.4561 68.0005 22.5701 68.4109 22.7069C68.8214 22.8437 69.1406 22.9805 69.3687 23.1174C69.6879 23.2998 69.9159 23.4822 70.0528 23.6874C70.1896 23.8699 70.258 24.1207 70.258 24.4399V25.5117C70.258 25.9905 70.0756 26.2414 69.7335 26.2414C69.5511 26.2414 69.2546 26.1502 68.867 25.9677C67.5672 25.3749 66.1078 25.0784 64.4888 25.0784C63.189 25.0784 62.1629 25.2837 61.456 25.7169C60.7491 26.1502 60.3842 26.8115 60.3842 27.7464C60.3842 28.3849 60.6123 28.9322 61.0683 29.3654C61.5244 29.7987 62.3681 30.2319 63.5767 30.6196L66.8147 31.6457C68.4565 32.1702 69.6423 32.8999 70.3492 33.8348C71.0561 34.7698 71.3981 35.8415 71.3981 37.0273C71.3981 38.0078 71.1929 38.8971 70.8053 39.6724C70.3948 40.4477 69.8475 41.1318 69.1406 41.6791C68.4337 42.2492 67.59 42.6596 66.6095 42.9561C65.5833 43.2753 64.5116 43.4349 63.3486 43.4349Z" fill="#FEFEFE"/>
<path fill-rule="evenodd" clip-rule="evenodd" d="M67.6584 54.5173C60.1562 60.0584 49.2563 63 39.8842 63C26.7496 63 14.9148 58.143 5.97598 50.0706C5.26909 49.4322 5.90757 48.5656 6.75129 49.0673C16.4198 54.6769 28.3458 58.0745 40.6823 58.0745C49.0055 58.0745 58.1495 56.3415 66.5639 52.7842C67.8181 52.2141 68.8898 53.6051 67.6584 54.5173Z" fill="#FF9900"/>
<path fill-rule="evenodd" clip-rule="evenodd" d="M70.7825 50.96C69.8247 49.7286 64.4432 50.3671 62.0033 50.6635C61.2736 50.7547 61.1595 50.1162 61.8208 49.6374C66.1078 46.6274 73.154 47.4939 73.9749 48.4972C74.7958 49.5234 73.7469 56.5695 69.7335 59.9444C69.1178 60.4689 68.5249 60.1952 68.7986 59.5111C69.7107 57.2536 71.7402 52.1685 70.7825 50.96Z" fill="#FF9900"/>
</g>
<defs>
<clipPath id="clip0_1_8">
<rect width="80" height="80" fill="white"/>
</clipPath>
</defs>
</svg>
