<svg xmlns="http://www.w3.org/2000/svg" width="80" height="80" fill="none" viewBox="0 0 80 80"><g clip-path="url(#clip0_201_41)"><path fill="#242424" d="M80 0H0V80H80V0Z"/><g clip-path="url(#clip1_201_41)"><path fill="#60A5FA" d="M41.3609 15L29.78 35.0464C34.1742 33.6925 38.9016 33.4918 43.484 34.572L47.3979 35.4953L43.7156 51.1005L39.7961 50.1772C36.7852 49.4674 33.6467 50.1708 31.2194 52.0885C30.0052 53.0483 29.0487 54.2533 28.3931 55.6051L24.7702 53.8534C25.6868 51.9616 27.0267 50.2739 28.7193 48.9348C32.1051 46.2563 36.5195 45.2726 40.7224 46.2637L42.558 38.4861C35.9826 36.9369 29.0527 38.4796 23.7556 42.6701C18.4585 46.8602 15.3645 53.2478 15.3645 59.999L67.358 60.0005L41.3609 15Z"/></g></g><defs><clipPath id="clip0_201_41"><rect width="80" height="80" fill="#fff"/></clipPath><clipPath id="clip1_201_41"><rect width="190" height="45" fill="#fff" transform="translate(15 15)"/></clipPath></defs></svg>