<svg xmlns="http://www.w3.org/2000/svg" width="80" height="80" fill="none" viewBox="0 0 80 80"><g clip-path="url(#clip0_201_14)"><path fill="#242424" d="M80 0H0V80H80V0Z"/><g clip-path="url(#clip1_201_14)"><path fill="#000" d="M60.2085 31.3329C60.1045 31.2236 59.994 31.1143 59.8835 31.0114C59.773 30.9086 59.669 30.7929 59.5585 30.69C59.448 30.5871 59.344 30.4714 59.2335 30.3686C59.123 30.2657 59.019 30.15 58.9085 30.0471C58.798 29.9443 58.694 29.8286 58.5835 29.7257C58.473 29.6229 58.369 29.5071 58.2585 29.4043C58.148 29.3014 58.044 29.1857 57.9335 29.0829C61.1576 32.2166 63.0046 36.4797 63.075 40.95C63.075 51.6021 52.142 60.2679 38.7 60.2679C31.1729 60.2679 24.4389 57.5486 19.9604 53.2864L20.2854 53.6079L20.6104 53.9293L20.9354 54.2507L21.2604 54.5721L21.5854 54.8936L21.9104 55.215L22.2354 55.5364C26.7074 59.9786 33.591 62.8393 41.3 62.8393C54.742 62.8393 65.675 54.1736 65.675 43.5536C65.675 39.015 63.699 34.7143 60.2085 31.3329Z"/><path fill="#FBF0DF" d="M61.4499 40.95C61.4499 50.7279 51.2644 58.6543 38.7 58.6543C26.1355 58.6543 15.95 50.7279 15.95 40.95C15.95 34.8879 19.85 29.5329 25.843 26.3572C31.836 23.1814 35.567 19.9286 38.7 19.9286C41.833 19.9286 44.5109 22.5836 51.5569 26.3572C57.5499 29.5329 61.4499 34.8879 61.4499 40.95Z"/><path fill="#F6DECE" d="M61.4501 40.95C61.4469 39.6939 61.272 38.444 60.9301 37.2343C59.1556 58.6415 32.7526 59.67 22.3721 53.2672C27.0384 56.8443 32.7968 58.7441 38.7001 58.6543C51.2451 58.6543 61.4501 50.715 61.4501 40.95Z"/><path fill="#FFFEFC" d="M29.9445 25.1807C32.85 23.4579 36.7109 20.2243 40.5069 20.2179C39.923 20.0312 39.3136 19.9336 38.7 19.9286C37.127 19.9286 35.45 20.7322 33.3375 21.9407C32.603 22.365 31.8425 22.8343 31.0365 23.3229C29.522 24.2486 27.7865 25.2964 25.8365 26.3443C19.6485 29.655 15.95 35.1129 15.95 40.95C15.95 41.2072 15.95 41.4643 15.95 41.715C19.889 27.9514 27.0455 26.9036 29.9445 25.1807Z"/><path fill="#CCBEA7" fill-rule="evenodd" d="M36.828 21.555C36.8371 23.0729 36.5149 24.5749 35.8833 25.9584C35.2517 27.3419 34.3257 28.5743 33.1685 29.5715C32.9865 29.7322 33.1295 30.0407 33.3635 29.9507C35.554 29.1086 38.5115 26.5886 37.2635 21.5036C37.2115 21.2143 36.828 21.2914 36.828 21.555ZM38.3035 21.555C39.0988 22.8384 39.6041 24.2768 39.7848 25.7714C39.9654 27.2661 39.8171 28.7817 39.35 30.2143C39.272 30.4393 39.5515 30.6322 39.7075 30.4457C41.131 28.6457 42.3725 25.0715 38.6545 21.2143C38.466 21.0472 38.1735 21.3043 38.3035 21.5293V21.555ZM40.0975 21.4457C41.343 22.3178 42.3849 23.4439 43.153 24.748C43.9211 26.0522 44.3975 27.504 44.55 29.0057C44.5434 29.0599 44.5582 29.1144 44.5911 29.1581C44.6241 29.2017 44.6728 29.2311 44.7272 29.2402C44.7815 29.2493 44.8373 29.2374 44.883 29.2069C44.9287 29.1764 44.9607 29.1297 44.9725 29.0765C45.5705 26.8329 45.2325 23.0079 40.312 21.0214C40.052 20.9186 39.883 21.2657 40.0975 21.42V21.4457ZM28.0985 28.1315C29.58 27.6937 30.9517 26.9523 32.1243 25.9554C33.2968 24.9586 34.244 23.7286 34.904 22.3457C35.021 22.1143 35.3915 22.2043 35.333 22.4614C34.2085 27.6043 30.445 28.6779 28.105 28.5365C27.858 28.5429 27.8645 28.2022 28.0985 28.1315Z" clip-rule="evenodd"/><path fill="#000" d="M38.7 60.2679C25.258 60.2679 14.325 51.6022 14.325 40.95C14.325 34.5214 18.342 28.5236 25.0695 24.93C27.0195 23.9014 28.69 22.8664 30.1785 21.96C30.9975 21.4586 31.771 20.9893 32.5185 20.5522C34.8 19.215 36.75 18.3214 38.7 18.3214C40.65 18.3214 42.353 19.0929 44.485 20.34C45.135 20.7064 45.785 21.105 46.4805 21.5422C48.099 22.5322 49.9255 23.6507 52.3305 24.93C59.058 28.5236 63.0749 34.515 63.0749 40.95C63.0749 51.6022 52.1419 60.2679 38.7 60.2679ZM38.7 19.9286C37.127 19.9286 35.45 20.7322 33.3375 21.9407C32.603 22.365 31.8424 22.8343 31.0364 23.3229C29.522 24.2486 27.7865 25.2964 25.8365 26.3443C19.6485 29.655 15.95 35.1129 15.95 40.95C15.95 50.715 26.155 58.6607 38.7 58.6607C51.2449 58.6607 61.4499 50.715 61.4499 40.95C61.4499 35.1129 57.7514 29.655 51.5569 26.3572C49.0999 25.0714 47.1824 23.8629 45.6289 22.9114C44.9204 22.4807 44.2704 22.0822 43.6789 21.7286C41.7095 20.5714 40.273 19.9286 38.7 19.9286Z"/><path fill="#B71422" d="M43.2825 45.6429C42.9905 46.8257 42.3258 47.886 41.3845 48.6707C40.6778 49.3483 39.7629 49.7735 38.7845 49.8793C37.7767 49.7903 36.8297 49.3639 36.1 48.6707C35.1683 47.8823 34.513 46.8224 34.228 45.6429C34.2185 45.5728 34.2254 45.5016 34.2481 45.4346C34.2708 45.3676 34.3087 45.3067 34.3589 45.2564C34.4091 45.2061 34.4703 45.1679 34.5377 45.1446C34.6051 45.1214 34.6771 45.1137 34.748 45.1221H42.769C42.8394 45.1147 42.9106 45.1232 42.9772 45.147C43.0438 45.1707 43.1041 45.2091 43.1535 45.2592C43.203 45.3094 43.2403 45.3699 43.2626 45.4364C43.2849 45.5028 43.2917 45.5734 43.2825 45.6429Z"/><path fill="#FF6164" d="M36.1 48.7222C36.8283 49.4158 37.7718 49.8462 38.778 49.9436C39.782 49.8448 40.723 49.4145 41.4495 48.7222C41.6819 48.5079 41.8991 48.2781 42.0995 48.0343C41.6991 47.585 41.21 47.2215 40.6623 46.9662C40.1145 46.7108 39.5198 46.5689 38.9146 46.5493C38.267 46.5645 37.6328 46.7351 37.0666 47.0464C36.5005 47.3577 36.0193 47.8004 35.6646 48.3365C35.8141 48.4715 35.944 48.6 36.1 48.7222Z"/><path fill="#000" d="M36.2041 48.2143C36.5263 47.8023 36.9388 47.468 37.4105 47.2364C37.8823 47.0048 38.4009 46.882 38.9276 46.8772C39.901 46.9056 40.8284 47.2931 41.5276 47.9636C41.6771 47.8029 41.8201 47.6357 41.9566 47.4686C41.1296 46.6897 40.0368 46.2468 38.8951 46.2279C38.2849 46.2331 37.6834 46.3718 37.1339 46.6341C36.5843 46.8964 36.1003 47.2758 35.7166 47.745C35.8702 47.9102 36.033 48.0668 36.2041 48.2143Z"/><path fill="#000" d="M38.7585 50.265C37.6753 50.1712 36.656 49.7181 35.866 48.9793C34.8598 48.1376 34.1516 47.0003 33.8445 45.7329C33.8224 45.62 33.8262 45.5038 33.8554 45.3925C33.8847 45.2813 33.9387 45.178 34.0135 45.09C34.1025 44.9836 34.215 44.8988 34.3423 44.842C34.4696 44.7851 34.6084 44.7578 34.748 44.7622H42.769C42.9084 44.7593 43.0466 44.7872 43.1737 44.8439C43.3008 44.9006 43.4135 44.9847 43.5035 45.09C43.5775 45.1783 43.6306 45.2819 43.6587 45.3931C43.6869 45.5044 43.6893 45.6205 43.666 45.7329C43.3588 47.0003 42.6506 48.1376 41.6445 48.9793C40.8561 49.7168 39.8393 50.1697 38.7585 50.265ZM34.748 45.5079C34.644 45.5079 34.618 45.5529 34.6115 45.5657C34.8862 46.6648 35.5078 47.6488 36.386 48.375C37.0281 49.0007 37.8631 49.3966 38.7585 49.5C39.6516 49.3978 40.4855 49.0069 41.131 48.3879C42.0064 47.6604 42.6255 46.6767 42.899 45.5786C42.8848 45.558 42.8651 45.5418 42.8422 45.5315C42.8193 45.5213 42.7939 45.5176 42.769 45.5207L34.748 45.5079Z"/><path fill="#FEBBD0" d="M48.593 46.0414C50.6931 46.0414 52.3955 45.0514 52.3955 43.83C52.3955 42.6087 50.6931 41.6186 48.593 41.6186C46.493 41.6186 44.7905 42.6087 44.7905 43.83C44.7905 45.0514 46.493 46.0414 48.593 46.0414Z"/><path fill="#FEBBD0" d="M28.9175 46.0414C31.0176 46.0414 32.72 45.0514 32.72 43.83C32.72 42.6087 31.0176 41.6186 28.9175 41.6186C26.8174 41.6186 25.115 42.6087 25.115 43.83C25.115 45.0514 26.8174 46.0414 28.9175 46.0414Z"/><path fill="#000" fill-rule="evenodd" d="M30.7049 42.9429C31.4135 42.9441 32.1066 42.7375 32.6964 42.349C33.2863 41.9606 33.7463 41.4078 34.0184 40.7607C34.2905 40.1136 34.3623 39.4012 34.2249 38.7136C34.0874 38.0261 33.7468 37.3943 33.2462 36.8983C32.7456 36.4023 32.1074 36.0643 31.4125 35.9271C30.7176 35.7899 29.9971 35.8597 29.3423 36.1276C28.6875 36.3955 28.1278 36.8495 27.7339 37.4321C27.3401 38.0148 27.1299 38.6999 27.1299 39.4007C27.1299 40.339 27.5063 41.239 28.1766 41.9031C28.8468 42.5672 29.7561 42.9412 30.7049 42.9429ZM46.8054 42.9429C47.5148 42.948 48.2098 42.7446 48.8022 42.3584C49.3946 41.9723 49.8577 41.4209 50.1327 40.7742C50.4078 40.1274 50.4824 39.4144 50.3472 38.7256C50.212 38.0368 49.8729 37.4032 49.3731 36.9053C48.8733 36.4073 48.2352 36.0674 47.5397 35.9286C46.8443 35.7899 46.1228 35.8585 45.4669 36.1258C44.8109 36.3931 44.25 36.8471 43.8553 37.4302C43.4606 38.0132 43.2499 38.6991 43.2499 39.4007C43.2481 40.3362 43.6214 41.2343 44.2878 41.8982C44.9542 42.5621 45.8595 42.9378 46.8054 42.9429Z" clip-rule="evenodd"/><path fill="#fff" fill-rule="evenodd" d="M29.6 39.6257C29.8664 39.627 30.1271 39.55 30.3493 39.4046C30.5714 39.2591 30.7449 39.0517 30.8477 38.8087C30.9505 38.5657 30.9781 38.2979 30.9269 38.0393C30.8757 37.7808 30.7481 37.5431 30.5602 37.3563C30.3723 37.1696 30.1326 37.0422 29.8714 36.9903C29.6102 36.9385 29.3393 36.9644 29.0931 37.065C28.8469 37.1655 28.6363 37.3361 28.4882 37.555C28.3401 37.774 28.261 38.0315 28.261 38.295C28.261 38.6468 28.4018 38.9843 28.6528 39.2337C28.9037 39.4831 29.2443 39.624 29.6 39.6257ZM45.7005 39.6257C45.9669 39.627 46.2276 39.55 46.4498 39.4046C46.6719 39.2591 46.8454 39.0517 46.9482 38.8087C47.051 38.5657 47.0786 38.2979 47.0274 38.0393C46.9762 37.7808 46.8486 37.5431 46.6607 37.3563C46.4728 37.1696 46.2331 37.0422 45.9719 36.9903C45.7107 36.9385 45.4398 36.9644 45.1936 37.065C44.9474 37.1655 44.7368 37.3361 44.5887 37.555C44.4406 37.774 44.3615 38.0315 44.3615 38.295C44.3614 38.6446 44.5005 38.9802 44.7487 39.2292C44.9968 39.4782 45.334 39.6206 45.6875 39.6257H45.7005Z" clip-rule="evenodd"/></g></g><defs><clipPath id="clip0_201_14"><rect width="80" height="80" fill="#fff"/></clipPath><clipPath id="clip1_201_14"><rect width="52" height="45" fill="#fff" transform="translate(14 18)"/></clipPath></defs></svg>