<svg xmlns="http://www.w3.org/2000/svg" width="79" height="80" fill="none" viewBox="0 0 79 80"><g clip-path="url(#clip0_101_293)"><path fill="#242424" d="M79 0H0V80H79V0Z"/><g clip-path="url(#clip1_101_293)"><path fill="#fff" d="M30.8553 34.492C33.2079 34.492 35.1195 35.7501 36.0997 37.9348L36.1733 38.1066L40.1188 36.7626L40.0392 36.5601C38.5136 32.8289 34.9908 30.5153 30.8553 30.5153C27.9451 30.5153 25.5802 31.4481 23.6258 33.3689C21.6836 35.2775 20.7034 37.677 20.7034 40.5C20.7034 43.3046 21.6898 45.6918 23.6258 47.5942C25.5802 49.5151 27.9451 50.4479 30.8553 50.4479C34.9908 50.4479 38.5075 48.1281 40.0392 44.4031L40.1188 44.2005L36.1671 42.8566L36.0997 43.0345C35.2175 45.1886 33.257 46.4712 30.8553 46.4712C29.2195 46.4712 27.8348 45.9005 26.7443 44.7713C25.6354 43.6298 25.0778 42.1876 25.0778 40.5C25.0778 38.8001 25.6231 37.3886 26.7443 36.1919C27.841 35.0627 29.2195 34.492 30.8553 34.492Z"/><path fill="url(#paint0_linear_101_293)" d="M47.9854 68.3431L46.8091 64.4584C57.4205 61.2304 64.552 51.6016 64.552 40.5C64.552 37.4377 64.0067 34.4429 62.9284 31.6077L66.7147 30.1655C67.9707 33.4671 68.6078 36.9406 68.6078 40.5061C68.6017 53.3997 60.3184 64.5873 47.9854 68.3431Z"/><path fill="#69D3A7" d="M63.4552 33.1603C60.2142 22.568 50.5892 15.4554 39.4999 15.4554C37.9927 15.4554 36.4856 15.5904 35.0152 15.8543L34.2983 11.8592C36.0016 11.5523 37.7538 11.3928 39.4999 11.3928C52.3782 11.3928 63.5594 19.6591 67.3273 31.9636L63.4552 33.1603Z"/><path fill="#fff" d="M55.5641 30.8835L49.9459 45.1456L44.2849 30.8835H39.6531L47.5933 50.3497L41.8097 64.4032L45.8594 65.2132L59.9385 30.8835H55.5641Z"/><path fill="url(#paint1_linear_101_293)" d="M42.5388 62.6357L41.6872 64.7039C41.4911 65.1764 41.0439 65.5017 40.5415 65.5201C40.1923 65.5323 39.8492 65.5446 39.4938 65.5446C29.0295 65.5446 19.6434 58.9413 16.0225 49.2635C15.9674 49.1162 15.9122 48.9689 15.8632 48.8216C15.8509 48.7848 15.8387 48.7418 15.8203 48.705C15.7774 48.57 15.7284 48.4411 15.6855 48.3061C15.6671 48.257 15.6549 48.2079 15.6365 48.1527C15.5998 48.03 15.5569 47.9134 15.5201 47.7906C15.5017 47.7292 15.4833 47.6679 15.465 47.6065C14.7849 45.3113 14.4418 42.9241 14.4418 40.4939C14.4418 27.5573 24.1404 16.8423 36.9941 15.572L36.5959 11.5339C21.6652 13.0129 10.3982 25.4646 10.3982 40.5C10.3982 43.237 10.778 45.9311 11.5194 48.5332V48.5393C11.5684 48.7173 11.6235 48.8891 11.6787 49.0671C11.6848 49.0916 11.6909 49.1162 11.7032 49.1407C11.7522 49.3064 11.8073 49.4721 11.8625 49.6378C11.8747 49.6685 11.8809 49.693 11.8931 49.7237C11.9482 49.8894 12.0034 50.0551 12.0647 50.2208C12.0708 50.2454 12.083 50.2638 12.0892 50.2883C12.1443 50.4479 12.2056 50.6074 12.2607 50.7609C16.4881 61.9607 27.363 69.595 39.4877 69.6011H39.4938C39.8982 69.6011 40.3026 69.595 40.7069 69.5766C42.7839 69.4906 44.6403 68.1835 45.4367 66.2504L46.5885 63.4458L42.5388 62.6357Z"/></g></g><defs><linearGradient id="paint0_linear_101_293" x1="70.837" x2="44.827" y1="40.684" y2="57.497" gradientUnits="userSpaceOnUse"><stop offset=".081" stop-color="#69D3A7"/><stop offset="1" stop-color="#69D3A7" stop-opacity="0"/></linearGradient><linearGradient id="paint1_linear_101_293" x1="42.67" x2="15.253" y1="66.432" y2="13.899" gradientUnits="userSpaceOnUse"><stop offset=".061" stop-color="#fff"/><stop offset=".138" stop-color="#DEF5EC"/><stop offset=".237" stop-color="#BAEBD7"/><stop offset=".343" stop-color="#9DE2C5"/><stop offset=".454" stop-color="#86DBB8"/><stop offset=".573" stop-color="#76D7AE"/><stop offset=".707" stop-color="#6CD4A9"/><stop offset=".884" stop-color="#69D3A7"/></linearGradient><clipPath id="clip0_101_293"><rect width="79" height="80" fill="#fff"/></clipPath><clipPath id="clip1_101_293"><rect width="59" height="59" fill="#fff" transform="translate(10 11)"/></clipPath></defs></svg>