<svg xmlns="http://www.w3.org/2000/svg" width="80" height="80" fill="none" viewBox="0 0 80 80"><g clip-path="url(#clip0_4_244)"><path fill="#242424" d="M80 0H0V80H80V0Z"/><path fill="#004EC2" d="M47.9457 7L55.121 11.181L26.8635 27.6462L19.6881 23.4652L47.9457 7Z"/><path fill="#004EC2" d="M55.4104 12.0588L27.3308 28.413L27.3298 36.6873L55.4095 20.3332L55.4104 12.0588Z"/><path fill="#004EC2" d="M44.1187 28.2068L27.3898 37.9502L27.3889 46.2248L44.1178 36.4813L44.1187 28.2068Z"/><path fill="#004EC2" d="M37.7058 41.2878L27.3502 47.3194L27.3492 55.5942L37.7049 49.5626L37.7058 41.2878Z"/><path fill="#004EC2" d="M19.1782 24.263L26.3958 28.4665L26.393 36.7428L19.1754 32.5394L19.1782 24.263Z"/><path fill="#004EC2" d="M19.2469 33.743L26.3769 37.8956L26.3742 46.1719L19.2441 42.0194L19.2469 33.743Z"/><path fill="#004EC2" d="M19.2438 43.166L26.3762 47.32L26.3733 56.1422L19.2408 51.9883L19.2438 43.166Z"/><path fill="#004EC2" d="M35.1372 70L27.9618 65.8191L55.8987 49.5407L63.074 53.7216L35.1372 70Z"/><path fill="#004EC2" d="M27.3931 65.1035L55.4306 48.7739L55.4315 40.4995L27.394 56.8291L27.3931 65.1035Z"/><path fill="#004EC2" d="M38.6426 48.9801L55.3714 39.2367L55.3724 30.9621L38.6435 40.7055L38.6426 48.9801Z"/><path fill="#004EC2" d="M45.0554 35.899L55.411 29.8674L55.4119 21.5927L45.0563 27.6243L45.0554 35.899Z"/><path fill="#004EC2" d="M63.584 52.9794L56.3665 48.7759L56.3692 40.4995L63.5868 44.703L63.584 52.9794Z"/><path fill="#004EC2" d="M63.5158 43.446L56.3857 39.2935L56.3885 31.0172L63.5185 35.1696L63.5158 43.446Z"/><path fill="#004EC2" d="M63.5184 34.023L56.386 29.8691L56.3889 21.2054L63.5213 25.3593L63.5184 34.023Z"/></g><defs><clipPath id="clip0_4_244"><rect width="80" height="80" fill="#fff"/></clipPath></defs></svg>