<svg width="80" height="80" viewBox="0 0 80 80" fill="none" xmlns="http://www.w3.org/2000/svg">
<g clip-path="url(#clip0_4_277)">
<path d="M80 0H0V80H80V0Z" fill="#242424"/>
<g clip-path="url(#clip1_4_277)">
<path fill-rule="evenodd" clip-rule="evenodd" d="M39.9136 12C23.9251 12 11 24.8333 11 40.7099C11 53.4009 19.2816 64.1436 30.7703 67.9457C32.2067 68.2316 32.7328 67.328 32.7328 66.5679C32.7328 65.9023 32.6855 63.6209 32.6855 61.2438C24.6424 62.9553 22.9675 57.8214 22.9675 57.8214C21.675 54.4941 19.7598 53.6389 19.7598 53.6389C17.1273 51.8802 19.9515 51.8802 19.9515 51.8802C22.8717 52.0703 24.4039 54.8272 24.4039 54.8272C26.9885 59.1998 31.1532 57.9643 32.8287 57.2037C33.0678 55.3498 33.8342 54.0665 34.648 53.3537C28.2331 52.6881 21.4838 50.2165 21.4838 39.1886C21.4838 36.0514 22.632 33.4847 24.4513 31.4886C24.1642 30.7757 23.1587 27.8282 24.7389 23.8831C24.7389 23.8831 27.1802 23.1224 32.6849 26.8301C35.0416 26.2016 37.4721 25.8819 39.9136 25.8792C42.3549 25.8792 44.8436 26.2123 47.1417 26.8301C52.647 23.1224 55.0883 23.8831 55.0883 23.8831C56.6685 27.8282 55.6624 30.7757 55.3753 31.4886C57.2426 33.4847 58.3434 36.0514 58.3434 39.1886C58.3434 50.2165 51.5941 52.6402 45.1312 53.3537C46.1847 54.2567 47.0938 55.9676 47.0938 58.6772C47.0938 62.5272 47.0464 65.6171 47.0464 66.5673C47.0464 67.328 47.5731 68.2316 49.0089 67.9463C60.4977 64.143 68.7792 53.4009 68.7792 40.7099C68.8266 24.8333 55.8541 12 39.9136 12Z" fill="white"/>
</g>
</g>
<defs>
<clipPath id="clip0_4_277">
<rect width="80" height="80" fill="white"/>
</clipPath>
<clipPath id="clip1_4_277">
<rect width="58" height="56" fill="white" transform="translate(11 12)"/>
</clipPath>
</defs>
</svg>
