<svg width="80" height="80" viewBox="0 0 80 80" fill="none" xmlns="http://www.w3.org/2000/svg">
<g clip-path="url(#clip0_4_90)">
<path d="M80 0H0V80H80V0Z" fill="#242424"/>
<path d="M40.0678 45.1269C42.8722 45.1269 45.1455 42.8535 45.1455 40.0492C45.1455 37.2448 42.8722 34.9714 40.0678 34.9714C37.2634 34.9714 34.9901 37.2448 34.9901 40.0492C34.9901 42.8535 37.2634 45.1269 40.0678 45.1269Z" fill="#61DAFB"/>
<g clip-path="url(#clip1_4_90)">
<path d="M61.296 40.0536C61.296 37.2289 59.0552 34.9392 56.291 34.9392C56.1132 34.9392 55.9378 34.9489 55.765 34.9673L62.6394 14.2491H33.4255L40.2902 34.9495C40.1896 34.9432 40.0884 34.9392 39.9861 34.9392C37.2219 34.9392 34.981 37.2289 34.981 40.0536C34.981 42.3368 36.4453 44.2697 38.4665 44.9274C37.3989 46.8168 36.0558 48.5185 34.5309 49.9886C32.4572 51.9876 30.084 53.5033 27.5174 54.4373C24.4615 52.8332 23.0183 49.2654 24.3205 46.1374C24.4676 45.7843 24.6176 45.4261 24.7612 45.0697C26.975 44.5416 28.6247 42.5134 28.6247 40.0903C28.6247 37.2657 26.3839 34.9759 23.6197 34.9759C20.8553 34.9759 18.6145 37.2657 18.6145 40.0903C18.6145 41.8225 19.458 43.3522 20.7471 44.2775C19.5082 47.1598 17.6873 50.1761 17.12 53.672C16.44 57.8619 17.1179 62.3093 20.664 64.8209C28.9227 70.6699 37.8875 61.195 47.3397 58.813C50.7653 57.9498 54.5255 58.0889 57.5436 56.3027C59.8101 54.9613 61.3042 52.7384 61.7283 50.2426C62.1471 47.7771 61.5364 45.3223 60.1321 43.3318C60.8584 42.444 61.296 41.3013 61.296 40.0536ZM44.9907 40.0717C44.9907 40.0656 44.9913 40.0596 44.9913 40.0536C44.9913 38.1987 44.0247 36.5744 42.5785 35.6779L48.0423 24.3881L53.5156 35.7976C52.1715 36.7145 51.2858 38.2782 51.2858 40.0536C51.2858 40.0909 51.2879 40.1276 51.2887 40.1647L44.9907 40.0717Z" fill="#C63D14"/>
<path d="M62.5183 40.0536C62.5183 36.947 60.3279 34.3548 57.4425 33.8011L64.3443 13H31.7203L38.6326 33.8433C35.8476 34.4766 33.7586 37.0198 33.7586 40.0536C33.7586 42.3319 34.9368 44.3331 36.7027 45.4576C35.8533 46.7506 34.8461 47.9674 33.6918 49.08C31.8614 50.8447 29.822 52.1829 27.6234 53.0633C25.4091 51.6419 24.473 48.9615 25.4452 46.6262L25.5213 46.4435C25.5688 46.3292 25.6166 46.2146 25.6641 46.0999C28.0963 45.2333 29.847 42.8675 29.847 40.0903C29.847 36.5814 27.0533 33.7268 23.6194 33.7268C20.1855 33.7268 17.392 36.5814 17.392 40.0903C17.392 41.8614 18.1043 43.4651 19.2507 44.6199C19.0429 45.0728 18.8243 45.533 18.5997 46.0045C17.5514 48.2047 16.3633 50.6985 15.9139 53.4678C15.0213 58.9676 16.4608 63.3641 19.9674 65.8474C22.0952 67.3544 24.2559 67.9471 26.4304 67.9469C30.525 67.9467 34.6667 65.8449 38.7178 63.7887C41.6355 62.308 44.6523 60.7767 47.6323 60.0258C48.7411 59.7463 49.8821 59.5782 51.09 59.4002C53.4852 59.0471 55.9623 58.6821 58.1563 57.3836C60.6993 55.8784 62.4403 53.3535 62.9325 50.4564C63.3551 47.9693 62.8464 45.4786 61.6059 43.366C62.1843 42.4005 62.5183 41.2663 62.5183 40.0536ZM60.0736 40.0536C60.0736 42.185 58.3767 43.9191 56.2907 43.9191C54.2051 43.9191 52.508 42.185 52.508 40.0536C52.508 37.9222 54.2051 36.1882 56.2907 36.1882C58.3767 36.1882 60.0736 37.9222 60.0736 40.0536ZM60.934 15.4981L54.8394 33.8664C54.5752 33.9311 54.3177 34.0127 54.0676 34.1109L48.047 21.5604L42.0088 34.0366C41.7479 33.9447 41.4793 33.8691 41.2039 33.8131L35.1302 15.4981H60.934ZM39.986 36.1882C42.0718 36.1882 43.7686 37.9222 43.7686 40.0536C43.7686 42.185 42.0718 43.9191 39.986 43.9191C37.9003 43.9191 36.2033 42.185 36.2033 40.0536C36.2033 37.9222 37.9003 36.1882 39.986 36.1882ZM23.6194 36.225C25.7054 36.225 27.4023 37.9589 27.4023 40.0903C27.4023 42.2217 25.7054 43.9559 23.6194 43.9559C21.5338 43.9559 19.8367 42.2217 19.8367 40.0903C19.8367 37.9589 21.5338 36.225 23.6194 36.225ZM60.5238 50.029C60.1557 52.1956 58.8461 54.0883 56.9309 55.2217C55.1456 56.2784 53.0061 56.5938 50.741 56.9275C49.5276 57.1063 48.2727 57.2913 47.0469 57.6003C43.8057 58.417 40.6663 60.0104 37.6303 61.5514C31.5547 64.6351 26.3075 67.298 21.3601 63.7942C17.7361 61.2276 17.9034 56.4788 18.3256 53.8765C18.7169 51.4656 19.7747 49.2452 20.7977 47.0979C20.9748 46.7263 21.1467 46.3623 21.3154 46.0006C21.8229 46.208 22.3624 46.3492 22.9248 46.4134C21.8835 49.9254 23.5212 53.7439 26.9585 55.5484L27.4289 55.7954L27.9272 55.6141C30.6446 54.6253 33.1485 53.0383 35.3695 50.8971C36.8052 49.5132 38.039 47.9819 39.0535 46.3457C39.3578 46.3926 39.6691 46.4173 39.986 46.4173C43.4198 46.4173 46.2135 43.5627 46.2135 40.0536C46.2135 38.1665 45.4046 36.4695 44.1235 35.303L48.0373 27.2158L51.9907 35.4571C50.8045 36.6166 50.0633 38.2477 50.0633 40.0536C50.0633 43.5627 52.8568 46.4173 56.2907 46.4173C57.6101 46.4173 58.8339 45.9948 59.8419 45.2768C60.5418 46.7408 60.8026 48.3881 60.5238 50.029Z" fill="white"/>
</g>
</g>
<defs>
<clipPath id="clip0_4_90">
<rect width="80" height="80" fill="white"/>
</clipPath>
<clipPath id="clip1_4_90">
<rect width="48.6885" height="55" fill="white" transform="translate(15.6558 13)"/>
</clipPath>
</defs>
</svg>
