<svg width="80" height="80" viewBox="0 0 80 80" fill="none" xmlns="http://www.w3.org/2000/svg">
<g clip-path="url(#clip0_2_54)">
<path d="M80 0H0V80H80V0Z" fill="#242424"/>
<path d="M67.3033 39.7946C67.3033 24.4441 54.9233 12 39.652 12C24.38 12 12 24.4441 12 39.7946C12 55.1447 24.38 67.5891 39.6517 67.5891C54.9233 67.5891 67.3033 55.1447 67.3033 39.7946Z" fill="#339AF0"/>
<path d="M34.5027 26.6813C34.2549 27.018 34.1118 27.4203 34.0914 27.8379C34.0711 28.2555 34.1742 28.6698 34.3881 29.029C34.53 29.2665 34.7175 29.4735 34.9399 29.6381C38.1606 32.0377 40.0097 35.7065 40.0097 39.7055C40.0097 43.7046 38.1606 47.3734 34.9399 49.773C34.7178 49.9376 34.5305 50.1447 34.3888 50.3821C34.1012 50.8632 34.0161 51.4388 34.1521 51.9826C34.2193 52.252 34.3383 52.5054 34.5027 52.7281C34.6667 52.9508 34.8732 53.139 35.1103 53.2816C35.3473 53.4243 35.6102 53.5187 35.8839 53.5594C36.1575 53.6001 36.4365 53.5863 36.7048 53.5188C36.9731 53.4512 37.2254 53.3313 37.4472 53.166C38.4392 52.4265 39.3479 51.5814 40.1574 50.6457H46.1232C47.2848 50.6457 48.2288 49.7003 48.2288 48.5333C48.2288 47.3663 47.2868 46.4209 46.1232 46.4209H42.8305C43.7509 44.3021 44.2236 42.016 44.2188 39.7059C44.2238 37.3956 43.7512 35.1092 42.8308 32.9902H46.1252C47.2868 32.9902 48.2305 32.0452 48.2305 30.8778C48.2305 29.7108 47.2885 28.7657 46.1252 28.7657H40.1608C39.3509 27.8291 38.4416 26.9832 37.4489 26.2431C37.2274 26.0779 36.9754 25.9582 36.7075 25.8907C36.4396 25.8232 36.1609 25.8093 35.8876 25.8499C35.3347 25.9329 34.8374 26.232 34.5047 26.6813H34.5027Z" fill="white"/>
<path fill-rule="evenodd" clip-rule="evenodd" d="M31.1786 39.0753C31.1685 38.655 31.2418 38.2368 31.3941 37.8449C31.5459 37.454 31.7739 37.0973 32.0649 36.7955C32.3548 36.495 32.702 36.2557 33.086 36.0919C33.469 35.9287 33.8809 35.8446 34.2972 35.8446C34.7135 35.8446 35.1254 35.9287 35.5084 36.0919C35.8925 36.2557 36.2399 36.4949 36.5298 36.7955C36.8208 37.0973 37.0489 37.454 37.2006 37.8449C37.3527 38.2368 37.4258 38.655 37.4155 39.0753C37.3966 39.8965 37.0597 40.6784 36.4759 41.2563C35.896 41.8302 35.1133 42.1524 34.2974 42.1532C33.4812 42.1526 32.6982 41.8303 32.1181 41.2563C31.5343 40.6784 31.1975 39.8965 31.1786 39.0753Z" fill="white"/>
</g>
<defs>
<clipPath id="clip0_2_54">
<rect width="80" height="80" fill="white"/>
</clipPath>
</defs>
</svg>
