<svg width="80" height="80" viewBox="0 0 80 80" fill="none" xmlns="http://www.w3.org/2000/svg">
<g clip-path="url(#clip0_4_204)">
<path d="M80 0H0V80H80V0Z" fill="#242424"/>
<path d="M41.1314 67.9959C40.3558 67.9959 39.5855 67.791 38.9055 67.3965L31.8205 63.1706C30.7623 62.5744 31.2787 62.3635 31.6277 62.2421C33.0386 61.7443 33.325 61.6319 34.831 60.7703C34.9893 60.6793 35.1965 60.7114 35.3585 60.8077L40.8015 64.0617C40.998 64.1688 41.2769 64.1688 41.4591 64.0617L62.6817 51.7201C62.8782 51.6077 63.0057 51.3776 63.0057 51.1421V26.4696C63.0057 26.2234 62.8782 26.004 62.6774 25.8809L41.4634 13.55C41.2668 13.4322 41.0065 13.4322 40.81 13.55L19.6001 25.8809C19.3946 25.9986 19.2639 26.2288 19.2639 26.4642V51.1368C19.2639 51.3722 19.3914 51.597 19.5932 51.7094L25.4049 55.0919C28.5604 56.6814 30.4887 54.8082 30.4887 52.9243V28.5729C30.4887 28.225 30.7597 27.9574 31.1049 27.9574H33.793C34.1276 27.9574 34.4039 28.225 34.4039 28.5729V52.935C34.4039 57.1738 32.109 59.6089 28.1194 59.6089C26.8923 59.6089 25.9255 59.6089 23.2268 58.2709L17.6596 55.0383C16.2837 54.2355 15.4337 52.737 15.4337 51.1368V26.4642C15.4337 24.8587 16.2837 23.3601 17.6596 22.568L38.9034 10.2211C40.2474 9.45573 42.0323 9.45573 43.3657 10.2211L64.583 22.5734C65.9535 23.3708 66.8088 24.864 66.8088 26.4696V51.1421C66.8088 52.7423 65.9535 54.2355 64.583 55.0383L43.3657 67.3853C42.6857 67.7813 41.9154 67.9847 41.1292 67.9847" fill="#689F63"/>
<path d="M47.6868 50.9949C38.4009 50.9949 36.454 46.7005 36.454 43.0987C36.454 42.7561 36.7281 42.4832 37.0686 42.4832H39.8097C40.1125 42.4832 40.3675 42.7053 40.4153 43.0066C40.8297 45.8207 42.0622 47.24 47.6772 47.24C52.1502 47.24 54.052 46.2221 54.052 43.8324C54.052 42.457 53.5101 41.4347 46.5617 40.7497C40.75 40.1717 37.1589 38.8819 37.1589 34.1989C37.1589 29.8852 40.7713 27.3163 46.822 27.3163C53.6164 27.3163 56.9844 29.6925 57.4093 34.7983C57.4253 34.9749 57.3615 35.1462 57.2447 35.2746C57.1278 35.3977 56.9631 35.4727 56.7931 35.4727H54.036C53.7492 35.4727 53.4995 35.2693 53.4411 34.991C52.777 32.0314 51.1727 31.0841 46.8113 31.0841C41.9294 31.0841 41.3609 32.7967 41.3609 34.0812C41.3609 35.6386 42.0303 36.0935 48.6175 36.9712C55.141 37.8436 58.2381 39.0745 58.2381 43.6933C58.2381 48.3495 54.3813 51.0201 47.656 51.0201" fill="#689F63"/>
</g>
<defs>
<clipPath id="clip0_4_204">
<rect width="80" height="80" fill="white"/>
</clipPath>
</defs>
</svg>
