<svg width="80" height="80" viewBox="0 0 80 80" fill="none" xmlns="http://www.w3.org/2000/svg">
<g clip-path="url(#clip0_1_13)">
<path d="M80 0H0V80H80V0Z" fill="#242424"/>
<path d="M30.1363 42.6874H16.278C16.2806 42.7553 16.2824 42.8222 16.2859 42.8892C16.2911 43.0187 16.3007 43.1474 16.3086 43.2769C16.3121 43.3326 16.3148 43.3882 16.3191 43.443C16.3296 43.5925 16.3428 43.7421 16.3568 43.8908C16.3603 43.9247 16.3629 43.9586 16.3664 43.9908C16.3822 44.1568 16.4006 44.3229 16.4198 44.4872C16.4207 44.5029 16.4224 44.5194 16.4251 44.535C16.447 44.7124 16.4697 44.8906 16.496 45.0671C16.496 45.0697 16.496 45.0724 16.4969 45.0741C16.6566 46.1737 16.896 47.2604 17.213 48.3259C17.2148 48.3302 17.2165 48.3345 17.2174 48.3389C17.2673 48.5076 17.3198 48.6745 17.3732 48.8406C17.3767 48.8501 17.3802 48.8606 17.3829 48.8701C17.3855 48.8797 17.389 48.8893 17.3925 48.8997C17.4415 49.0501 17.4932 49.1997 17.5448 49.3501C17.558 49.3875 17.5711 49.4257 17.5851 49.464C17.6315 49.5935 17.6788 49.7231 17.7278 49.8535C17.7506 49.9117 17.7725 49.97 17.7944 50.0291C17.8373 50.1369 17.8784 50.2439 17.9213 50.3508C17.9537 50.4317 17.987 50.5125 18.0211 50.5925C18.0561 50.6769 18.0911 50.7595 18.127 50.8438C18.1708 50.9464 18.2172 51.0481 18.2627 51.1507C18.2899 51.2116 18.3179 51.2716 18.345 51.3324C18.4011 51.455 18.4589 51.5776 18.5175 51.6993C18.5368 51.7385 18.5552 51.7776 18.5744 51.8158C18.6427 51.9567 18.7119 52.0949 18.7819 52.2332C18.7942 52.2541 18.8038 52.2758 18.8152 52.2967C18.894 52.4497 18.9745 52.6018 19.0577 52.7531C19.0612 52.7601 19.0656 52.7662 19.0682 52.774C19.0857 52.8053 19.105 52.8357 19.1225 52.867L30.9584 45.787L31.0022 45.761C30.5355 44.7837 30.2449 43.7438 30.1363 42.6874Z" fill="#93D500"/>
<path d="M33.5429 49.0057L33.5096 49.0388L23.7477 58.7323C23.7976 58.7784 23.8475 58.8262 23.8992 58.8706C23.9903 58.9532 24.0831 59.034 24.175 59.1149C24.2231 59.1566 24.2695 59.1984 24.3177 59.2401C24.428 59.3349 24.5401 59.427 24.6513 59.5201C24.6819 59.5453 24.7108 59.5696 24.7414 59.5948C24.8833 59.7108 25.0266 59.825 25.1713 59.9374C25.3096 60.0461 25.4488 60.1513 25.5907 60.2574C25.5968 60.2608 25.6012 60.2643 25.6064 60.2687C26.1954 60.7056 26.8049 61.1147 27.4327 61.4946C27.4537 61.5085 27.4756 61.5207 27.4975 61.5346C27.6175 61.605 27.7365 61.6754 27.8573 61.745L28.078 61.8702C28.148 61.9102 28.2172 61.9484 28.2872 61.9867C28.4142 62.0554 28.5411 62.1241 28.6689 62.191C28.6864 62.2006 28.704 62.2101 28.7223 62.2188C29.0769 62.4032 29.4376 62.5744 29.8018 62.7396L30.1485 61.9041L35.0583 50.0647L35.0759 50.0213C34.5401 49.7361 34.0261 49.3987 33.5429 49.0057Z" fill="#4D5A31"/>
<path d="M32.5264 48.0398C32.4215 47.9238 32.3199 47.805 32.2217 47.6833C32.1342 47.5764 32.0501 47.4686 31.9687 47.359C31.875 47.2338 31.784 47.1069 31.6973 46.9782C31.6106 46.8486 31.5248 46.7182 31.4443 46.5861L19.5935 53.6747C19.7756 53.9756 19.9647 54.2677 20.1591 54.5564C20.1652 54.5668 20.1713 54.5772 20.1783 54.5868C20.1801 54.5911 20.1827 54.5937 20.1853 54.5981C20.1915 54.6068 20.1976 54.6172 20.2037 54.6268C20.2046 54.6276 20.2055 54.6285 20.2055 54.6303C20.2212 54.6529 20.237 54.6755 20.2528 54.6989C20.2536 54.6998 20.2545 54.7016 20.2563 54.7033C20.258 54.705 20.2571 54.7042 20.2571 54.705C20.4629 55.0067 20.6748 55.3041 20.8928 55.5945C20.8971 55.6006 20.9024 55.6067 20.9068 55.6127C20.912 55.6188 20.9164 55.6249 20.9208 55.631C21.0162 55.7553 21.1107 55.8797 21.2088 56.0031C21.2219 56.0196 21.2342 56.0353 21.2482 56.0509C21.348 56.1788 21.4504 56.3048 21.5546 56.4292C21.5791 56.4587 21.6045 56.4883 21.629 56.5187C21.7227 56.63 21.8164 56.7404 21.9118 56.85C21.953 56.8969 21.995 56.9447 22.037 56.9908C22.1185 57.083 22.199 57.1751 22.2822 57.2656C22.3277 57.3151 22.375 57.3656 22.4214 57.4151C22.4424 57.4386 22.4634 57.4603 22.4853 57.4838C22.5457 57.549 22.6061 57.6142 22.6674 57.6786C22.6919 57.7038 22.7182 57.729 22.7427 57.7551C22.8504 57.8664 22.9598 57.9785 23.0701 58.0881L32.8469 48.3806C32.7348 48.2693 32.6297 48.1546 32.5264 48.0398Z" fill="#6BA43A"/>
<path d="M45.4847 49.0005C45.377 49.0866 45.2685 49.171 45.1581 49.2518L45.1818 49.2927L52.3101 61.0416C52.6402 60.8277 52.9667 60.6069 53.2854 60.3748C53.9753 59.8696 54.6425 59.3218 55.2859 58.7324L45.5232 49.0388L45.4847 49.0005Z" fill="#4D5A31"/>
<path d="M51.2744 61.1381L51.0328 60.7391L44.379 49.7726C44.2441 49.8526 44.1067 49.9256 43.9692 49.9987C43.83 50.0735 43.6908 50.1421 43.549 50.2091C42.2707 50.8108 40.8875 51.1185 39.5015 51.1185C38.5936 51.1185 37.6866 50.9881 36.8094 50.7282C36.6597 50.6838 36.5135 50.6256 36.3664 50.5734C36.2184 50.5221 36.0687 50.4769 35.9234 50.4178L31.0171 62.2493L30.8253 62.7127L30.6607 63.1101L30.6598 63.1118C30.6721 63.117 30.6852 63.1214 30.6975 63.1266C30.7115 63.1318 30.7246 63.1361 30.7378 63.1422H30.7395C30.743 63.144 30.7465 63.1448 30.7491 63.1457C30.8647 63.1935 30.9812 63.2335 31.0976 63.2787C31.2438 63.3353 31.3891 63.3926 31.5353 63.4457C31.6106 63.4726 31.6842 63.5039 31.7586 63.53H31.7595C33.2971 64.0689 34.8871 64.4469 36.5038 64.6577C36.5677 64.6655 36.6299 64.6742 36.6938 64.6829C36.7595 64.6907 36.826 64.6968 36.8925 64.7046C37.0169 64.7186 37.1412 64.7325 37.2664 64.7446L37.3592 64.7525C37.5124 64.7672 37.6656 64.7803 37.8179 64.7907C37.8705 64.7951 37.923 64.7968 37.9747 64.8012C38.1086 64.8098 38.2426 64.8177 38.3765 64.8238C38.4588 64.829 38.5411 64.8307 38.6234 64.8342C38.7302 64.8377 38.8362 64.842 38.943 64.8455C39.0962 64.849 39.2511 64.8498 39.4052 64.8507C39.442 64.8507 39.4779 64.8516 39.5147 64.8525C40.806 64.8525 42.0974 64.7455 43.3748 64.5325C43.3958 64.529 43.4177 64.5255 43.4395 64.5229C43.5744 64.4995 43.7092 64.4742 43.844 64.4499C43.9211 64.4351 43.999 64.4203 44.0743 64.4055C44.1531 64.389 44.2327 64.3734 44.3115 64.356C44.4429 64.329 44.5742 64.3003 44.7064 64.2699C44.73 64.2647 44.7537 64.2604 44.7773 64.2534C46.7192 63.8048 48.5945 63.1092 50.356 62.1884V62.1876C50.4716 62.1276 50.5845 62.0589 50.6992 61.9963C50.8358 61.9224 50.9715 61.845 51.1081 61.7676C51.2017 61.7146 51.2972 61.665 51.3908 61.6094C51.3917 61.6085 51.3926 61.6076 51.3935 61.6076H51.3944C51.3961 61.6068 51.397 61.6059 51.3987 61.605L51.4005 61.6033C51.4014 61.6033 51.4022 61.6024 51.4031 61.6024C51.4049 61.6016 51.4057 61.6007 51.4075 61.5998C51.4127 61.5963 51.418 61.5937 51.4232 61.5903C51.453 61.572 51.4837 61.5546 51.5143 61.5363L51.2744 61.1381ZM33.5481 34.5137C33.6558 34.4267 33.7653 34.3433 33.8747 34.2615L33.8511 34.2216L26.7227 22.4717C26.3918 22.6865 26.0652 22.9082 25.7457 23.1404C25.0566 23.6446 24.3886 24.1915 23.7469 24.7801L33.5096 34.4746L33.5481 34.5137Z" fill="#93D500"/>
<path d="M23.0701 25.4261C22.9589 25.5365 22.8539 25.6504 22.7453 25.7617C22.6376 25.8739 22.5273 25.9852 22.4214 26.0982C21.7086 26.8634 21.0487 27.6756 20.4462 28.5292C20.4173 28.5683 20.3893 28.6101 20.3604 28.6501C20.2939 28.7474 20.2274 28.844 20.1626 28.9413C20.0943 29.0422 20.0269 29.1448 19.9612 29.2465C19.9367 29.2839 19.9122 29.3222 19.8885 29.3595C17.6429 32.8574 16.4399 36.8247 16.278 40.825C16.2718 40.9807 16.2683 41.1363 16.2648 41.2911C16.2622 41.4458 16.257 41.6015 16.257 41.7562H30.0838C30.0838 41.6015 30.0978 41.4467 30.1065 41.2911C30.1144 41.1354 30.1161 40.9798 30.1319 40.825C30.3105 39.0374 31.0057 37.2916 32.2174 35.8257C32.3154 35.7066 32.4266 35.5944 32.5325 35.4796C32.6367 35.364 32.7348 35.2449 32.8468 35.1336L23.0701 25.4261ZM51.5983 22.0179C51.5799 22.0066 51.5598 21.9953 51.5414 21.984C51.4197 21.91 51.2972 21.8388 51.1737 21.7675C51.1028 21.7266 51.031 21.6866 50.9601 21.6466C50.8874 21.6066 50.8165 21.5666 50.7438 21.5275C50.6188 21.4599 50.4936 21.3927 50.3682 21.3258C50.3481 21.3162 50.3289 21.3058 50.3087 21.2953C49.498 20.8745 48.6654 20.5041 47.8153 20.1824C47.7934 20.1737 47.7715 20.1651 47.7496 20.1572C47.564 20.0885 47.3784 20.0199 47.1911 19.9555C45.6801 19.4321 44.1191 19.0642 42.5325 18.8574L42.3381 18.8313C42.2725 18.8235 42.2077 18.8174 42.1429 18.8104C42.0177 18.7957 41.8934 18.7817 41.7673 18.7696C41.7332 18.7661 41.6982 18.7644 41.6623 18.76C41.5143 18.747 41.3646 18.7339 41.2158 18.7226L41.0415 18.7122C40.9146 18.7044 40.785 18.6948 40.6581 18.6896C40.5898 18.6861 40.5215 18.6835 40.4541 18.6818V32.4444C41.165 32.5174 41.8698 32.6678 42.5535 32.8982L52.754 22.7699C52.3749 22.5091 51.9923 22.2552 51.5983 22.0179Z" fill="#4D5A31"/>
<path d="M39.048 18.6705C38.8913 18.674 38.7346 18.674 38.5787 18.68C37.6008 18.7192 36.6246 18.8183 35.6563 18.98C35.6353 18.9835 35.6143 18.987 35.5924 18.9904C35.4567 19.0139 35.3219 19.0383 35.187 19.0635C35.1109 19.0783 35.0338 19.0922 34.9568 19.1069C34.8771 19.1226 34.7983 19.1391 34.7187 19.1565C34.5873 19.1835 34.456 19.2122 34.3256 19.2426C34.301 19.2469 34.2774 19.253 34.2538 19.2582C32.313 19.7082 30.4379 20.4025 28.6742 21.3241C28.5595 21.3849 28.4474 21.4536 28.3327 21.5153C28.1962 21.5901 28.0596 21.6666 27.9239 21.744C27.8232 21.8023 27.7208 21.8553 27.6201 21.9144C27.6192 21.9153 27.6175 21.9162 27.6166 21.9162C27.6096 21.9205 27.6026 21.9249 27.5956 21.9283C27.5693 21.9448 27.5422 21.9579 27.5159 21.9735L27.5168 21.9753L27.7593 22.3744L34.6539 33.7407C34.7887 33.6608 34.9261 33.5868 35.0636 33.5138C35.2019 33.4399 35.342 33.3704 35.483 33.3043C36.4573 32.8425 37.5046 32.551 38.5787 32.4426C38.7346 32.427 38.8904 32.414 39.0471 32.4061C39.203 32.3983 39.3597 32.3905 39.5164 32.3905V18.6609C39.3597 18.6609 39.2038 18.6679 39.048 18.6705Z" fill="#6BA43A"/>
<path d="M62.747 40.6216C62.74 40.4981 62.733 40.3756 62.7242 40.2512C62.721 40.1897 62.7169 40.1283 62.712 40.0669C62.7023 39.9217 62.6901 39.7765 62.6761 39.6313C62.6734 39.5939 62.6699 39.5565 62.6664 39.5191C62.6507 39.3566 62.6332 39.1948 62.6139 39.0331C62.6122 39.0201 62.6113 39.007 62.6095 38.994L62.6069 38.9757C62.5859 38.801 62.5622 38.6262 62.5377 38.4523L62.5351 38.4358C62.3755 37.3383 62.1367 36.2536 61.8207 35.1901C61.8181 35.1823 61.8163 35.1762 61.8137 35.1693C61.7638 35.0032 61.7121 34.8389 61.6605 34.6745C61.6526 34.6528 61.6456 34.6311 61.6386 34.6093C61.5896 34.4607 61.5397 34.3128 61.488 34.165L61.446 34.0451C61.4005 33.9172 61.3532 33.7894 61.3059 33.6616C61.2823 33.6008 61.2595 33.5399 61.235 33.4799C61.1947 33.3738 61.1536 33.2686 61.1107 33.1643C61.0774 33.08 61.0433 32.9974 61.0091 32.9156C60.975 32.833 60.9399 32.7522 60.9058 32.6704C60.8603 32.5661 60.8139 32.4618 60.7675 32.3583C60.7412 32.3001 60.7149 32.2409 60.6878 32.1818C60.6309 32.0584 60.5722 31.934 60.5136 31.8106C60.4952 31.774 60.4768 31.7358 60.4584 31.6984C60.3901 31.5575 60.3201 31.4158 60.2483 31.2767C60.2387 31.2576 60.2282 31.2376 60.2185 31.2185C60.1389 31.0646 60.0566 30.9098 59.9743 30.7576C59.9708 30.7524 59.9681 30.7463 59.9646 30.7411C59.5626 30.0074 59.121 29.2957 58.6418 28.6092L48.4387 38.7418C48.6707 39.4209 48.8213 40.1208 48.8948 40.8259H62.7557C62.7522 40.7572 62.7505 40.6886 62.747 40.6216Z" fill="#4D5A31"/>
<path d="M48.9491 41.7562C48.9491 41.9119 48.9342 42.0666 48.9263 42.2223C48.9184 42.3779 48.9158 42.5335 48.9 42.6874C48.7214 44.4759 48.0272 46.2217 46.8155 47.6885C46.7174 47.8076 46.6062 47.9189 46.5003 48.0346C46.3952 48.1493 46.298 48.2684 46.186 48.3797L55.9627 58.0872C56.0739 57.9768 56.1781 57.8629 56.2866 57.7507C56.3952 57.6386 56.5055 57.5281 56.6106 57.4142C57.3337 56.6361 57.9956 55.8223 58.591 54.9763C58.6155 54.9424 58.6374 54.9093 58.661 54.8763C58.7337 54.7728 58.8037 54.6676 58.8755 54.5633C58.9377 54.4694 58.9998 54.3764 59.0602 54.2816C59.0909 54.2364 59.1206 54.1894 59.1495 54.1442C61.3917 50.6481 62.592 46.6852 62.7531 42.6874C62.7592 42.5326 62.7627 42.377 62.7653 42.2214C62.7688 42.0666 62.7732 41.9119 62.7732 41.7562H48.9491Z" fill="#6BA43A"/>
<path d="M66.8811 14.5832C64.3518 12.0713 60.2509 12.0713 57.7216 14.5832C55.7036 16.5864 55.3 19.5817 56.502 21.9866L42.3924 35.9978C39.9708 34.805 36.9538 35.2049 34.9358 37.2081C32.4065 39.72 32.4073 43.7925 34.9358 46.3044C37.466 48.8162 41.5677 48.8153 44.097 46.3044C46.1151 44.3003 46.5178 41.305 45.3157 38.9001L59.4253 24.8897C61.8478 26.0826 64.8631 25.6826 66.8811 23.6785C69.4104 21.1676 69.4104 17.095 66.8811 14.5832Z" fill="#424143"/>
</g>
<defs>
<clipPath id="clip0_1_13">
<rect width="80" height="80" fill="white"/>
</clipPath>
</defs>
</svg>
