<svg xmlns="http://www.w3.org/2000/svg" width="80" height="80" fill="none" viewBox="0 0 80 80"><g clip-path="url(#clip0_4_147)"><path fill="#242424" d="M80 0H0V80H80V0Z"/><g clip-path="url(#clip1_4_147)"><path fill="url(#paint0_radial_4_147)" d="M16.6309 40.8613C16.9546 41.1377 17.4312 41.5212 18.1595 41.6638C19.0677 41.8421 19.8231 41.539 20.1378 41.3964C20.6503 42.0116 22.2689 43.7771 24.9935 44.3388C26.9897 44.7579 28.6083 44.321 29.1299 44.1605C29.6334 44.0089 31.0272 43.5274 32.3221 42.3326C34.1205 40.6741 35.4872 37.8742 34.9747 34.7981C34.4352 31.5434 32.0882 29.7423 31.5577 29.3588C31.7196 29.2162 31.9443 29.0022 32.1872 28.7347C32.3581 28.5386 33.1583 27.629 33.7158 26.1489C33.8776 25.7208 34.1833 24.8827 34.2554 23.7414C34.3813 21.753 33.6889 20.246 33.3561 19.5506C33.0414 18.8907 32.7087 18.3736 32.4569 18.0347C31.5847 18.2576 30.3618 18.6143 28.95 19.1938C27.1966 19.9161 23.9864 21.4587 20.8571 24.4546C19.8231 25.4445 18.8519 26.3896 17.8898 27.9322C16.7117 29.8226 16.1723 31.6148 15.9115 32.8363C15.6058 33.1128 15.1292 33.6032 14.8324 34.3521C14.4727 35.2527 14.5627 36.0374 14.6526 36.7597C14.7425 37.4374 15.0033 39.4881 16.6309 40.8613Z"/><path fill="url(#paint1_radial_4_147)" d="M55.117 23.2955C51.1694 20.0052 47.0961 18.6321 44.5963 18.0347C39.7585 16.8755 35.703 17.3749 33.491 17.8118C34.4892 19.1137 34.8848 20.3352 35.0646 21.0664C35.82 24.1961 34.5431 26.7641 34.1654 27.4864C33.7158 28.3513 33.2212 28.9932 32.8616 29.4034C33.3741 29.8404 34.0755 30.527 34.705 31.4988C35.0197 31.9893 35.6491 32.979 35.9639 34.4413C36.2875 35.9393 36.1166 37.1966 35.9639 37.9188C35.7121 39.0869 35.2624 39.9875 34.8848 40.5938C35.4782 40.4957 36.3505 40.3887 37.4026 40.4155C40.6037 40.4957 42.9776 41.7083 43.9668 42.2879C44.6052 42.6625 46.0619 43.5809 47.4737 45.2305C48.8045 46.773 49.4879 48.2621 49.8117 49.0647C50.1713 49.9562 50.8817 51.9981 50.8007 54.5929C50.7738 55.342 50.549 60.041 46.8442 63.777C46.5205 64.107 45.1358 65.4623 42.8877 66.5412C40.4958 67.6915 38.3107 67.95 36.9979 68.0125C37.9331 68.0749 39.093 68.1016 40.4149 68.0125C41.1433 67.959 42.627 67.8252 44.4614 67.3884C45.7112 67.0941 48.175 66.3985 50.9807 64.8471C53.1746 63.6344 54.7663 62.3415 55.7464 61.4587C56.6725 60.6295 58.0574 59.2653 59.4332 57.3571C60.4852 55.9037 61.1596 54.6464 61.5014 53.9688C62.2117 52.5599 62.6973 51.267 63.03 50.2238C63.2638 49.4926 63.6594 48.1016 63.9292 46.3005C63.9832 45.9349 64.172 44.5884 64.199 43.0013C64.2619 39.1137 63.2908 35.8769 63.03 35.0655C60.8809 28.2531 56.1961 24.1961 55.117 23.2955Z"/><path fill="url(#paint2_radial_4_147)" d="M67.7958 25.5246C67.0764 23.0369 64.9362 21.1377 62.2657 20.5759C62.3285 19.3454 62.2297 17.2322 60.8718 15.4488C58.5339 12.3726 53.3724 11.4363 48.3729 13.6655C47.5186 11.9089 46.3946 11.3472 45.9451 11.1689C43.4452 10.1613 39.6686 11.8911 37.3126 15.8947C40.1181 15.8056 44.5512 16.0552 49.362 18.1238C52.5272 19.4881 54.7483 21.1555 55.8363 22.0472C57.0503 23.0458 59.5141 25.2393 61.6812 28.7347C62.8681 30.6518 63.6234 32.4083 64.109 33.728C64.7384 33.4069 65.8355 32.7382 66.7167 31.4988C66.9325 31.1867 68.6949 28.6365 67.7958 25.5246Z"/><path fill="url(#paint3_radial_4_147)" d="M41.314 54.5484C41.7457 54.8694 43.1664 55.8502 45.1806 55.7966C47.8153 55.7253 49.4158 53.9599 49.6767 53.6567C49.6496 52.9612 49.5508 51.9625 49.2271 50.8034C47.9502 46.2649 44.4342 43.9108 43.9218 43.5809C43.4182 43.251 40.5137 41.423 36.5482 41.53C35.8108 41.5479 35.1904 41.6282 34.7498 41.7083C35.4781 41.8511 36.5482 42.1453 37.6722 42.823C40.9274 44.7757 41.7726 48.1551 41.8985 48.7079C42.438 51.0084 41.9164 52.881 41.8085 53.2554C41.6467 53.7904 41.4579 54.2363 41.314 54.5484Z"/><path fill="url(#paint4_radial_4_147)" d="M27.0616 61.1912C25.9376 58.222 26.567 55.6273 26.7918 54.7712C27.0076 53.942 27.2864 53.2733 27.5111 52.8096C27.2505 52.6313 23.3299 50.0187 19.3733 51.7841C17.5749 52.5867 16.5498 53.951 16.0912 54.6821C17.6289 57.4997 19.3913 59.4881 20.6772 60.7454C24.3369 64.3121 28.2845 66.0062 30.7483 66.8088C32.7176 67.4507 34.4711 67.7538 35.8108 67.9143C34.7588 67.7807 33.1942 67.424 31.5576 66.452C30.8383 66.0241 28.2934 64.4548 27.0616 61.1912Z"/><path fill="#fff" stroke="#fff" stroke-linejoin="round" stroke-miterlimit="10" d="M26.9717 40.5493C29.4796 40.5493 31.5127 38.5333 31.5127 36.0463C31.5127 33.5594 29.4796 31.5434 26.9717 31.5434C24.4637 31.5434 22.4307 33.5594 22.4307 36.0463C22.4307 38.5333 24.4637 40.5493 26.9717 40.5493Z"/><path fill="url(#paint5_linear_4_147)" d="M26.9717 38.6054C28.397 38.6054 29.5523 37.4596 29.5523 36.0463C29.5523 34.633 28.397 33.4872 26.9717 33.4872C25.5463 33.4872 24.3909 34.633 24.3909 36.0463C24.3909 37.4596 25.5463 38.6054 26.9717 38.6054Z"/><path fill="#fff" d="M28.3654 34.7534C28.2845 34.6642 27.6461 33.9777 26.6929 34.049C26.1175 34.0935 25.416 34.4056 25.1552 35.0209C25.1103 35.119 24.8855 35.7074 25.2182 36.0909C25.4431 36.3495 25.7847 36.3584 25.8477 36.3584C26.1624 36.3584 26.4591 36.1979 26.612 35.9661C26.8188 35.6361 26.612 35.3775 26.7468 35.11C26.8638 34.8782 27.2325 34.6642 28.3654 34.7534Z"/><path fill="url(#paint6_linear_4_147)" d="M39.8753 25.8368C41.5029 27.959 45.864 24.205 50.7557 26.3717C54.0918 27.852 55.2158 30.9816 57.5897 30.5626C58.7227 30.3575 59.5141 29.4658 59.9907 28.7704C57.9584 25.7298 55.8093 23.8662 55.1169 23.2955C51.1693 20.0052 47.096 18.6321 44.5962 18.0347C42.8697 17.6245 41.2511 17.4194 39.7764 17.3481C39.7584 17.5889 39.7314 17.9723 39.6954 18.4359C39.4168 22.8408 39.2729 25.0521 39.8753 25.8368Z"/><path fill="url(#paint7_linear_4_147)" d="M47.8784 40.2817C47.6984 39.8626 46.9341 38.2666 45.2707 37.3392C43.9128 36.5813 43.1485 36.9201 41.4041 36.4475C38.5715 35.6718 38.3018 33.933 36.6382 33.7725C36.3594 33.7459 36.0717 33.7459 35.784 33.7637C35.8469 33.9777 35.9099 34.2006 35.9638 34.4413C36.2875 35.9393 36.1166 37.1966 35.9638 37.9188C35.7121 39.0868 35.2624 39.9875 34.8848 40.5938C35.4782 40.4957 36.3505 40.3887 37.4026 40.4155C40.6037 40.4957 42.9776 41.7083 43.9668 42.2879C44.6052 42.6625 46.0619 43.5809 47.4737 45.2305C47.5996 45.3731 47.7164 45.5158 47.8244 45.6584C48.4898 43.884 48.6067 41.9491 47.8784 40.2817Z"/><path fill="url(#paint8_linear_4_147)" d="M61.5013 53.9688C62.2116 52.5599 62.6972 51.267 63.0299 50.2238C63.2637 49.4926 63.6593 48.1016 63.9291 46.3005C63.9831 45.9349 64.1718 44.5884 64.1989 43.0013C64.2617 39.1136 63.2907 35.8769 63.0299 35.0655C63.0208 35.0387 63.0119 35.012 63.0029 34.9852C62.6612 36.2157 62.1127 37.4195 61.2764 38.4984C58.6778 41.8421 54.8471 42.0829 54.6223 44.4726C54.4065 46.8354 58.0213 47.7093 59.2982 51.16C60.2513 53.7547 59.4241 56.5457 58.2911 58.8194C58.6687 58.3736 59.0464 57.8831 59.433 57.357C60.4761 55.8947 61.1505 54.6464 61.5013 53.9688Z"/><path fill="url(#paint9_linear_4_147)" d="M53.0038 62.5733C52.8868 61.9848 52.4732 61.2447 51.8348 60.9684C50.5668 60.4155 49.1552 61.967 47.114 63.5007C47.0241 63.5899 46.934 63.6879 46.8441 63.777C46.5204 64.107 45.1357 65.4623 42.8876 66.5412C40.4957 67.6915 38.3106 67.9501 36.9978 68.0125C37.933 68.0749 39.0929 68.1016 40.4148 68.0125C41.1432 67.959 42.6269 67.8252 44.4613 67.3884C45.7111 67.0941 48.1749 66.3985 50.9806 64.8471C51.6729 64.4636 52.3114 64.0713 52.8868 63.6879C53.0218 63.3491 53.0846 62.9924 53.0038 62.5733Z"/><path fill="url(#paint10_linear_4_147)" d="M22.5566 41.1287C21.9901 41.5747 21.5406 42.1364 21.2977 42.7517C21.2618 42.8318 21.2347 42.9032 21.2168 42.9835C21.1899 43.0548 21.1628 43.1618 21.1359 43.2509C21.0909 43.4293 21.046 43.5897 21.019 43.7504C20.965 44.0713 20.983 44.3745 21.0729 44.6419C21.1628 44.9094 21.3428 45.1502 21.5945 45.3553C21.9992 45.6674 22.4577 45.7922 22.5566 45.8189C22.9253 45.9081 23.204 45.8992 23.6626 45.8814C24.1663 45.8636 24.4 45.7923 25.0924 45.7744C25.2183 45.7744 25.3352 45.7744 25.4431 45.7744H25.7937C26.0276 45.7744 26.2703 45.7833 26.5131 45.8101C26.9987 45.8457 27.4933 45.9171 27.9609 46.0597C28.4375 46.2024 28.8871 46.4342 29.2558 46.7285C29.6154 47.0316 29.9031 47.3882 30.074 47.7895C30.164 47.9946 30.2179 48.1998 30.2359 48.4137C30.2628 48.6277 30.2448 48.8328 30.2088 49.0378C30.1729 49.243 30.11 49.4481 30.0201 49.6353C29.9211 49.8314 29.7863 50.0097 29.6064 50.1614C29.5615 50.197 29.5165 50.2327 29.4625 50.2683C29.4176 50.304 29.3637 50.3308 29.3097 50.3575C29.2018 50.411 29.0849 50.4467 28.9679 50.4735C28.7342 50.527 28.4824 50.5358 28.2486 50.5002C27.9159 50.4556 27.6821 50.3308 27.5922 50.2773C27.2685 50.09 27.1067 49.8582 27.1156 49.8492C27.1247 49.8404 27.2865 50.0722 27.6191 50.2327C27.7001 50.2683 27.9339 50.3753 28.2576 50.3932C28.4824 50.4021 28.6982 50.3753 28.9051 50.313C29.0039 50.2773 29.1029 50.2417 29.1928 50.1882C29.2378 50.1614 29.2827 50.1347 29.3187 50.1079C29.3546 50.0812 29.3996 50.0454 29.4266 50.0097C29.7053 49.7423 29.8132 49.3678 29.8403 48.9933C29.8672 48.6187 29.7953 48.2621 29.6154 47.9411C29.4356 47.6202 29.1659 47.3347 28.8421 47.1119C28.5184 46.8979 28.1407 46.7373 27.7361 46.6571C26.9267 46.4788 26.0366 46.5323 25.1373 46.6125C24.4989 46.666 24.4989 46.7463 23.8335 46.8087C23.1321 46.88 22.7365 46.9158 22.2059 46.8265C21.4866 46.7017 20.9741 46.4075 20.7223 46.247C20.4975 46.0954 20.2817 45.9259 20.1019 45.7209C19.9219 45.5247 19.7691 45.3018 19.6612 45.061C19.4364 44.5884 19.3824 44.0892 19.4004 43.6344C19.4095 43.4026 19.4364 43.1796 19.4723 42.9745C19.4903 42.8675 19.4994 42.7784 19.5263 42.6625C19.5443 42.5465 19.5802 42.4395 19.6073 42.3236C19.868 41.432 20.3985 40.6116 21.1179 39.934L21.1269 39.9251C21.4956 39.5773 22.1251 39.5506 22.5296 39.8627C22.9433 40.1747 22.9702 40.7098 22.6106 41.0574C22.6015 41.0931 22.5746 41.1109 22.5566 41.1287Z"/></g></g><defs><radialGradient id="paint0_radial_4_147" cx="0" cy="0" r="1" gradientTransform="translate(41.3084 39.4765) scale(35.3388 35.0424)" gradientUnits="userSpaceOnUse"><stop stop-color="#9E60FC"/><stop offset="1" stop-color="#45239B"/></radialGradient><radialGradient id="paint1_radial_4_147" cx="0" cy="0" r="1" gradientTransform="translate(41.3084 39.4765) scale(35.3388 35.0423)" gradientUnits="userSpaceOnUse"><stop stop-color="#9E60FC"/><stop offset="1" stop-color="#45239B"/></radialGradient><radialGradient id="paint2_radial_4_147" cx="0" cy="0" r="1" gradientTransform="translate(41.3084 39.4764) scale(35.3388 35.0423)" gradientUnits="userSpaceOnUse"><stop stop-color="#9E60FC"/><stop offset="1" stop-color="#45239B"/></radialGradient><radialGradient id="paint3_radial_4_147" cx="0" cy="0" r="1" gradientTransform="translate(41.3083 39.4765) scale(35.3389 35.0425)" gradientUnits="userSpaceOnUse"><stop stop-color="#9E60FC"/><stop offset="1" stop-color="#45239B"/></radialGradient><radialGradient id="paint4_radial_4_147" cx="0" cy="0" r="1" gradientTransform="translate(41.3083 39.4765) scale(35.3388 35.0423)" gradientUnits="userSpaceOnUse"><stop stop-color="#9E60FC"/><stop offset="1" stop-color="#45239B"/></radialGradient><linearGradient id="paint5_linear_4_147" x1="24.26" x2="27.46" y1="30.217" y2="37.218" gradientUnits="userSpaceOnUse"><stop stop-color="#9E60FC"/><stop offset=".928" stop-color="#45239B"/></linearGradient><linearGradient id="paint6_linear_4_147" x1="42.062" x2="50.975" y1="32.306" y2="21.61" gradientUnits="userSpaceOnUse"><stop offset=".506" stop-color="#FFBF4F"/><stop offset="1" stop-color="#F58E54"/></linearGradient><linearGradient id="paint7_linear_4_147" x1="43.988" x2="37.917" y1="37.574" y2="43.606" gradientUnits="userSpaceOnUse"><stop offset=".185" stop-color="#FFBF4F"/><stop offset="1" stop-color="#F58E54"/></linearGradient><linearGradient id="paint8_linear_4_147" x1="54.609" x2="64.198" y1="46.9" y2="46.9" gradientUnits="userSpaceOnUse"><stop offset=".236" stop-color="#FFBF4F"/><stop offset="1" stop-color="#F58E54"/></linearGradient><linearGradient id="paint9_linear_4_147" x1="51.776" x2="42.368" y1="58.052" y2="68.954" gradientUnits="userSpaceOnUse"><stop offset=".103" stop-color="#FFBF4F"/><stop offset=".893" stop-color="#F58E54"/></linearGradient><linearGradient id="paint10_linear_4_147" x1="19.401" x2="30.25" y1="45.098" y2="45.098" gradientUnits="userSpaceOnUse"><stop offset=".185" stop-color="#FFBF4F"/><stop offset="1" stop-color="#F58E54"/></linearGradient><clipPath id="clip0_4_147"><rect width="80" height="80" fill="#fff"/></clipPath><clipPath id="clip1_4_147"><rect width="242" height="81" fill="#fff" transform="translate(-2 -1)"/></clipPath></defs></svg>