<svg width="80" height="80" viewBox="0 0 80 80" fill="none" xmlns="http://www.w3.org/2000/svg">
<g clip-path="url(#clip0_4_102)">
<path d="M80 0H0V80H80V0Z" fill="#242424"/>
<path fill-rule="evenodd" clip-rule="evenodd" d="M47.7875 47.0816L46.6129 49.1212C46.2591 49.7356 45.6041 50.1142 44.8951 50.1142H35.8974C35.1884 50.1142 34.5334 49.7356 34.1795 49.1212L33.0049 47.0816H47.7875ZM51.0756 41.3721L49.0046 44.9681H31.7877L29.7168 41.3721H51.0756ZM49.0807 35.7889L51.0789 39.2587H29.7135L31.7117 35.7889H49.0807ZM44.8951 30.5109C45.6041 30.5109 46.2591 30.8895 46.6129 31.5039L47.8636 33.6754H32.9289L34.1795 31.5039C34.5334 30.8895 35.1884 30.5109 35.8974 30.5109H44.8951Z" fill="#00435B"/>
<path d="M22.8022 29.5645C21.8055 24.7314 21.5916 21.0244 22.2358 18.3327C22.619 16.7318 23.3196 15.4258 24.3848 14.4836C25.5094 13.4888 26.9312 13.0006 28.5288 13.0006C31.1644 13.0006 33.9351 14.2025 36.896 16.4857C38.1037 17.417 39.3571 18.5395 40.6589 19.8539C40.7625 19.7205 40.8796 19.5947 41.0101 19.4784C44.6904 16.1988 47.7889 14.1611 50.439 13.3754C52.0148 12.9083 53.4942 12.8638 54.8415 13.3171C56.2636 13.7957 57.3968 14.785 58.1962 16.1707C59.5156 18.4576 59.8636 21.4627 59.3717 25.1731C59.1712 26.6855 58.8284 28.3329 58.3441 30.118C58.5268 30.14 58.71 30.1805 58.8913 30.2406C63.5607 31.788 66.8672 33.4521 68.869 35.3538C70.0601 36.4852 70.8378 37.7449 71.119 39.1392C71.4157 40.611 71.1264 42.0872 70.3278 43.4718C69.0109 45.7554 66.5894 47.5565 63.1397 48.9831C61.7546 49.5559 60.1873 50.0747 58.4363 50.5412C58.5162 50.7216 58.5782 50.9132 58.6196 51.1142C59.6164 55.9473 59.8303 59.6542 59.186 62.346C58.8028 63.9469 58.1023 65.2528 57.037 66.1951C55.9124 67.1899 54.4906 67.678 52.893 67.678C50.2574 67.678 47.4868 66.4761 44.5258 64.1929C43.3053 63.2517 42.038 62.1152 40.7213 60.7827C40.5859 60.9947 40.4195 61.1916 40.2228 61.3669C36.5426 64.6466 33.4441 66.6842 30.7939 67.4699C29.2181 67.9371 27.7387 67.9816 26.3914 67.5282C24.9693 67.0496 23.8362 66.0603 23.0367 64.6746C21.7173 62.3877 21.3694 59.3827 21.8613 55.6722C22.069 54.1052 22.4295 52.3931 22.9419 50.5332C22.7416 50.5129 22.5405 50.4706 22.3416 50.4047C17.6722 48.8573 14.3657 47.1933 12.3639 45.2916C11.1729 44.1601 10.3951 42.9005 10.114 41.5061C9.81721 40.0344 10.1066 38.5582 10.9051 37.1735C12.222 34.8899 14.6435 33.0888 18.0932 31.6623C19.5196 31.0724 21.1391 30.5398 22.9536 30.0625C22.889 29.9043 22.8379 29.7379 22.8022 29.5645Z" fill="#002B3B"/>
<path fill-rule="evenodd" clip-rule="evenodd" d="M34.7942 28.0248C37.2147 27.8321 39.7096 27.747 42.2788 27.7695C42.7654 27.7738 43.1633 27.3828 43.1675 26.8962C43.1693 26.6913 43.0996 26.4922 42.9704 26.3331C37.1227 19.133 32.3076 15.533 28.5251 15.533C24.62 15.533 23.5059 19.8376 25.1829 28.4468C25.2748 28.9187 25.728 29.2298 26.2014 29.1459C29.187 28.6168 32.0513 28.2431 34.7942 28.0248Z" fill="#FF4154"/>
<path fill-rule="evenodd" clip-rule="evenodd" d="M48.3819 29.2098C49.7798 31.2241 51.1214 33.3572 52.4067 35.6092C52.648 36.0317 53.1861 36.1788 53.6087 35.9376C53.7859 35.8364 53.9225 35.6769 53.9952 35.4863C57.303 26.81 57.9982 20.8264 56.0807 17.5356C54.1021 14.1398 49.7907 15.314 43.1468 21.0582C42.7815 21.374 42.7385 21.9251 43.0503 22.2937C45.0244 24.6272 46.8016 26.9326 48.3819 29.2098Z" fill="#FF4154"/>
<path fill-rule="evenodd" clip-rule="evenodd" d="M54.2489 41.331C53.2027 43.5298 52.0267 45.7396 50.7211 47.9606C50.4745 48.38 50.6146 48.92 51.0341 49.1666C51.2117 49.271 51.4203 49.3099 51.6236 49.2764C60.7394 47.7776 66.2441 45.3854 68.1376 42.0997C70.0932 38.7063 66.9483 35.5961 58.703 32.769C58.2488 32.6133 57.7535 32.85 57.5893 33.3012C56.5488 36.1607 55.4354 38.8373 54.2489 41.331Z" fill="#FF4154"/>
<path fill-rule="evenodd" clip-rule="evenodd" d="M46.769 52.7104C44.3486 52.9031 41.8537 52.9882 39.2845 52.9657C38.7979 52.9614 38.4 53.3524 38.3957 53.839C38.394 54.0439 38.4637 54.243 38.5929 54.4021C44.4406 61.6022 49.2557 65.2022 53.0382 65.2022C56.9433 65.2022 58.0574 60.8976 56.3804 52.2884C56.2885 51.8165 55.8353 51.5054 55.3619 51.5893C52.3763 52.1184 49.512 52.4921 46.769 52.7104Z" fill="#FF4154"/>
<path fill-rule="evenodd" clip-rule="evenodd" d="M32.851 51.6355C31.4532 49.6212 30.1116 47.4881 28.8262 45.2362C28.585 44.8136 28.0469 44.6665 27.6243 44.9077C27.4471 45.0089 27.3105 45.1684 27.2378 45.3591C23.93 54.0354 23.2348 60.0189 25.1522 63.3097C27.1309 66.7055 31.4423 65.5313 38.0862 59.7871C38.4515 59.4713 38.4945 58.9203 38.1826 58.5516C36.2086 56.2181 34.4314 53.9128 32.851 51.6355Z" fill="#FF4154"/>
<path fill-rule="evenodd" clip-rule="evenodd" d="M26.9841 39.184C28.0303 36.9852 29.2062 34.7753 30.5119 32.5544C30.7585 32.1349 30.6183 31.595 30.1989 31.3484C30.0213 31.244 29.8127 31.2051 29.6094 31.2385C20.4936 32.7373 14.9889 35.1296 13.0954 38.4152C11.1398 41.8086 14.2846 44.9188 22.53 47.7459C22.9842 47.9016 23.4795 47.665 23.6437 47.2137C24.6841 44.3542 25.7976 41.6776 26.9841 39.184Z" fill="#FF4154"/>
<path fill-rule="evenodd" clip-rule="evenodd" d="M36.6207 30.621H44.1733C45.2779 30.621 46.2981 31.2118 46.8479 32.1698L50.6402 38.7776C51.1857 39.7282 51.1857 40.8969 50.6402 41.8475L46.8479 48.4553C46.2981 49.4133 45.2779 50.0041 44.1733 50.0041H36.6207C35.5161 50.0041 34.4959 49.4133 33.9461 48.4553L30.1538 41.8475C29.6083 40.8969 29.6083 39.7282 30.1538 38.7776L33.9461 32.1698C34.4959 31.2118 35.5161 30.621 36.6207 30.621ZM43.0222 32.6154C44.1274 32.6154 45.148 33.2068 45.6976 34.1656L48.342 38.779C48.8865 39.7289 48.8865 40.8962 48.342 41.846L45.6976 46.4595C45.148 47.4183 44.1274 48.0097 43.0222 48.0097H37.7718C36.6666 48.0097 35.646 47.4183 35.0964 46.4595L32.452 41.846C31.9075 40.8962 31.9075 39.7289 32.452 38.779L35.0964 34.1656C35.646 33.2068 36.6666 32.6154 37.7718 32.6154H43.0222ZM41.7815 34.7968H39.0125C37.9085 34.7968 36.8887 35.387 36.3387 36.3442L34.9413 38.7763C34.3947 39.7275 34.3947 40.8976 34.9413 41.8488L36.3387 44.2809C36.8887 45.2381 37.9085 45.8283 39.0125 45.8283H41.7815C42.8855 45.8283 43.9053 45.2381 44.4553 44.2809L45.8527 41.8488C46.3993 40.8976 46.3993 39.7275 45.8527 38.7763L44.4553 36.3442C43.9053 35.387 42.8855 34.7968 41.7815 34.7968ZM40.5869 36.8847C41.69 36.8847 42.7092 37.474 43.2595 38.4301L43.4576 38.7743C44.0057 39.7266 44.0057 40.8985 43.4576 41.8508L43.2595 42.195C42.7092 43.1511 41.69 43.7404 40.5869 43.7404H40.2071C39.104 43.7404 38.0848 43.1511 37.5345 42.195L37.3364 41.8508C36.7883 40.8985 36.7883 39.7266 37.3364 38.7743L37.5345 38.4301C38.0848 37.474 39.104 36.8847 40.2071 36.8847H40.5869ZM40.3975 38.9414C39.9065 38.9414 39.4537 39.2027 39.2086 39.627C38.9634 40.0512 38.9634 40.5739 39.2086 40.9981C39.4537 41.4224 39.9065 41.6837 40.3965 41.6837C40.8875 41.6837 41.3403 41.4224 41.5854 40.9981C41.8306 40.5739 41.8306 40.0512 41.5854 39.627C41.3403 39.2027 40.8875 38.9414 40.3975 38.9414ZM29.2729 40.3125H31.7416Z" fill="#FFD94C"/>
</g>
<defs>
<clipPath id="clip0_4_102">
<rect width="80" height="80" fill="white"/>
</clipPath>
</defs>
</svg>
