<svg xmlns="http://www.w3.org/2000/svg" width="80" height="80" fill="none" viewBox="0 0 80 80"><g clip-path="url(#clip0_2_81)"><path fill="#242424" d="M80 0H0V80H80V0Z"/><path fill="#61DAFB" d="M40.0752 45.6317C43.1855 45.6317 45.7069 43.1103 45.7069 40C45.7069 36.8897 43.1855 34.3683 40.0752 34.3683C36.9649 34.3683 34.4435 36.8897 34.4435 40C34.4435 43.1103 36.9649 45.6317 40.0752 45.6317Z"/><path fill="#61DAFB" d="M61.4657 30.7127C60.3788 30.3174 59.2426 29.9222 58.057 29.5764C58.3534 28.3908 58.6004 27.2052 58.798 26.069C59.8354 19.5481 58.6992 14.9538 55.5376 13.1754C54.5989 12.632 53.5615 12.385 52.3759 12.385C48.9179 12.385 44.5212 14.9538 40.0751 19.2517C35.6291 14.9538 31.2324 12.385 27.7743 12.385C26.5887 12.385 25.5513 12.632 24.6127 13.1754C21.4511 15.0032 20.3148 19.5975 21.3523 26.069C21.5499 27.2052 21.7969 28.3908 22.0933 29.5764C20.9076 29.9222 19.7714 30.268 18.6846 30.7127C12.5095 33.0839 9.15027 36.3443 9.15027 40C9.15027 43.6556 12.5589 46.9161 18.6846 49.2873C19.7714 49.6825 20.9076 50.0777 22.0933 50.4235C21.7969 51.6092 21.5499 52.7948 21.3523 53.931C20.3148 60.4519 21.4511 65.0462 24.6127 66.8246C25.5513 67.368 26.5887 67.615 27.7743 67.615C31.2818 67.615 35.6785 65.0462 40.0751 60.7483C44.5212 65.0462 48.9179 67.615 52.3759 67.615C53.5615 67.615 54.5989 67.368 55.5376 66.8246C58.6992 64.9968 59.8354 60.4025 58.798 53.931C58.6004 52.7948 58.3534 51.6092 58.057 50.4235C59.2426 50.0777 60.3788 49.7319 61.4657 49.2873C67.6407 46.9161 71 43.6556 71 40C71 36.3443 67.6407 33.0839 61.4657 30.7127ZM54.1543 15.6454C56.1798 16.831 56.8714 20.4867 56.0316 25.6738C55.8834 26.7112 55.6364 27.798 55.34 28.9342C52.7711 28.3414 50.0541 27.9462 47.1888 27.6992C45.5092 25.328 43.7802 23.2037 42.0512 21.2771C45.7068 17.6709 49.4119 15.2008 52.4253 15.2008C53.0675 15.2008 53.6603 15.349 54.1543 15.6454ZM48.6215 44.9401C47.7322 46.5209 46.6948 48.1017 45.608 49.6825C43.7802 49.8307 41.9524 49.8801 40.0751 49.8801C38.1485 49.8801 36.3207 49.8307 34.5422 49.6825C33.4554 48.1017 32.4674 46.5209 31.5782 44.9401C30.6396 43.3098 29.7504 41.6302 28.96 40C29.7504 38.3698 30.6396 36.6901 31.5782 35.0599C32.4674 33.4791 33.5048 31.8983 34.5916 30.3174C36.4195 30.1692 38.2473 30.1198 40.1245 30.1198C42.0512 30.1198 43.879 30.1692 45.6574 30.3174C46.7442 31.8983 47.7322 33.4791 48.6215 35.0599C49.5601 36.6901 50.4493 38.3698 51.2397 40C50.3999 41.6302 49.5601 43.2604 48.6215 44.9401ZM52.7217 43.3098C53.4627 45.0389 54.0555 46.7185 54.5989 48.3981C52.9193 48.7933 51.1409 49.0897 49.2637 49.3367C49.8565 48.3981 50.4987 47.4101 51.0421 46.3727C51.6349 45.3353 52.1783 44.2979 52.7217 43.3098ZM40.0751 56.6974C38.8895 55.413 37.7533 54.0298 36.6665 52.5972C37.8027 52.6466 38.9389 52.696 40.0751 52.696C41.2113 52.696 42.3476 52.6466 43.4838 52.5972C42.397 54.0298 41.2607 55.413 40.0751 56.6974ZM30.8866 49.2873C29.0094 49.0403 27.2309 48.7439 25.5513 48.3487C26.0947 46.7185 26.6875 44.9895 27.4285 43.2604C27.9719 44.2485 28.5154 45.2859 29.1082 46.2739C29.701 47.3607 30.2938 48.2993 30.8866 49.2873ZM27.4285 36.6901C26.6875 34.9611 26.0947 33.2815 25.5513 31.6019C27.2309 31.2067 29.0094 30.9103 30.8866 30.6633C30.2938 31.6019 29.6516 32.5899 29.1082 33.6273C28.5154 34.6647 27.9719 35.7021 27.4285 36.6901ZM40.0751 23.3025C41.2607 24.587 42.397 25.9702 43.4838 27.4028C42.3476 27.3534 41.2113 27.304 40.0751 27.304C38.9389 27.304 37.8027 27.3534 36.6665 27.4028C37.7533 25.9702 38.8895 24.587 40.0751 23.3025ZM51.0421 33.6767L49.2637 30.7127C51.1409 30.9597 52.9193 31.2561 54.5989 31.6513C54.0555 33.2815 53.4627 35.0105 52.7217 36.7395C52.1783 35.7021 51.6349 34.6647 51.0421 33.6767ZM24.1187 25.6738C23.2789 20.4867 23.9705 16.831 25.9959 15.6454C26.4899 15.349 27.0827 15.2008 27.7249 15.2008C30.689 15.2008 34.394 17.6215 38.0991 21.2771C36.3701 23.1543 34.641 25.328 32.9614 27.6992C30.0962 27.9462 27.3791 28.3908 24.8103 28.9342C24.5139 27.798 24.3163 26.7112 24.1187 25.6738ZM11.9167 40C11.9167 37.6782 14.7326 35.2081 19.6726 33.3803C20.6606 32.9851 21.7475 32.6393 22.8343 32.3429C23.6247 34.8129 24.6127 37.4312 25.7983 40.0494C24.6127 42.6676 23.5753 45.2365 22.8343 47.7065C16.017 45.7305 11.9167 42.7664 11.9167 40ZM25.9959 64.3546C23.9705 63.1689 23.2789 59.5133 24.1187 54.3262C24.2669 53.2888 24.5139 52.202 24.8103 51.0658C27.3791 51.6586 30.0962 52.0538 32.9614 52.3008C34.641 54.672 36.3701 56.7962 38.0991 58.7229C34.4434 62.3291 30.7384 64.7992 27.7249 64.7992C27.0827 64.7992 26.4899 64.651 25.9959 64.3546ZM56.0316 54.3262C56.8714 59.5133 56.1798 63.1689 54.1543 64.3546C53.6603 64.651 53.0675 64.7992 52.4253 64.7992C49.4613 64.7992 45.7562 62.3785 42.0512 58.7229C43.7802 56.8456 45.5092 54.672 47.1888 52.3008C50.0541 52.0538 52.7711 51.6092 55.34 51.0658C55.6364 52.202 55.834 53.2888 56.0316 54.3262ZM60.4776 46.6197C59.4896 47.0149 58.4028 47.3607 57.316 47.6571C56.5256 45.1871 55.5376 42.5688 54.3519 39.9506C55.5376 37.3324 56.575 34.7635 57.316 32.2935C64.1333 34.2695 68.2336 37.2336 68.2336 40C68.2336 42.3218 65.3683 44.7919 60.4776 46.6197Z"/></g><defs><clipPath id="clip0_2_81"><rect width="80" height="80" fill="#fff"/></clipPath></defs></svg>