<svg xmlns="http://www.w3.org/2000/svg" width="79" height="80" fill="none" viewBox="0 0 79 80"><g clip-path="url(#clip0_101_187)"><path fill="#242424" d="M79 0H0V80H79V0Z"/><g clip-path="url(#clip1_101_187)"><path fill="#398CCB" d="M51.1797 13H28.8203C20.083 13 13 20.083 13 28.8203V51.1797C13 59.917 20.083 67 28.8203 67H51.1797C59.917 67 67 59.917 67 51.1797V28.8203C67 20.083 59.917 13 51.1797 13Z"/><path fill="#fff" fill-rule="evenodd" d="M39.9415 20.9102L47.4379 25.2352V27.6133L56.5115 32.8532V41.8166L58.9454 43.2216V51.8766L51.4538 56.2016L48.1279 54.2781L40.0413 58.947L32.0031 54.3051L28.7237 56.2016L21.2322 51.8692V43.2216L23.5712 41.8713V32.8532L32.45 27.7274L32.4549 27.7272V25.2352L39.9415 20.9102ZM47.4379 29.8622V33.8852L39.9464 38.2103L32.4549 33.8852V29.9737L32.45 29.9739L25.5182 33.9777V40.7471L28.7237 38.8966L36.2152 43.2216V51.8692L33.9488 53.1799L40.0413 56.6981L46.1823 53.1532L43.9623 51.8692V43.2216L51.4538 38.8966L54.5643 40.6924V33.9777L47.4379 29.8622ZM45.9095 50.7545V45.4754L50.4803 48.1138V53.3929L45.9095 50.7545ZM56.9982 45.4681L52.4274 48.1065V53.3929L56.9982 50.7473V45.4681ZM23.1793 50.7473V45.4681L27.7502 48.1065V53.3856L23.1793 50.7473ZM34.2681 45.4681L29.6972 48.1065V53.3856L34.2681 50.7473V45.4681ZM46.883 43.7888L51.4538 41.1505L56.0246 43.7888L51.4538 46.4296L46.883 43.7888ZM28.7237 41.1431L24.1528 43.7888L28.7237 46.4222L33.2946 43.7888L28.7237 41.1431ZM34.402 32.7608V27.4817L38.9679 30.1224V35.3991L34.402 32.7608ZM45.4859 27.4817L40.9199 30.1224V35.3967L45.4859 32.7608V27.4817ZM35.3756 25.7974L39.9415 23.1591L44.5124 25.7974L39.9415 28.4358L35.3756 25.7974Z" clip-rule="evenodd"/></g></g><defs><clipPath id="clip0_101_187"><rect width="79" height="80" fill="#fff"/></clipPath><clipPath id="clip1_101_187"><rect width="54" height="54" fill="#fff" transform="translate(13 13)"/></clipPath></defs></svg>