<svg width="79" height="80" viewBox="0 0 79 80" fill="none" xmlns="http://www.w3.org/2000/svg">
<g clip-path="url(#clip0_101_2)">
<path d="M79 0H0V80H79V0Z" fill="#242424"/>
<path d="M38.5455 20.4342C27.9998 20.4342 19.4199 29.014 19.4199 39.5598C19.4199 50.1056 27.9998 58.6854 38.5455 58.6854C49.0913 58.6854 57.6711 50.1056 57.6711 39.5598C57.6711 29.014 49.0913 20.4342 38.5455 20.4342ZM38.5455 49.4574C33.0785 49.4574 28.6479 45.0268 28.6479 39.5598C28.6479 34.0928 33.0785 29.6622 38.5455 29.6622C44.0125 29.6622 48.4431 34.0928 48.4431 39.5598C48.4431 45.0268 44.0125 49.4574 38.5455 49.4574Z" fill="white"/>
<path fill-rule="evenodd" clip-rule="evenodd" d="M40.1485 17.2928V10.1519C55.6698 10.9817 68 23.8319 68 39.5598C68 55.2877 55.6698 68.1343 40.1485 68.9677V61.8268C51.7165 61.0005 60.8768 51.3344 60.8768 39.5598C60.8768 27.7852 51.7165 18.1191 40.1485 17.2928ZM21.6781 54.1623C18.6116 50.622 16.6349 46.1131 16.2823 41.1625H9.13782C9.50822 48.0898 12.2791 54.3759 16.6207 59.2161L21.6746 54.1623H21.6781ZM36.9431 68.9677V61.8268C31.9889 61.4742 27.48 59.5011 23.9398 56.431L18.8859 61.4848C23.7296 65.83 30.0158 68.5973 36.9395 68.9677H36.9431Z" fill="url(#paint0_linear_101_2)"/>
</g>
<defs>
<linearGradient id="paint0_linear_101_2" x1="41.3027" y1="14.2873" x2="12.3542" y2="43.2356" gradientUnits="userSpaceOnUse">
<stop stop-color="#0096FF"/>
<stop offset="1" stop-color="#FF1E56"/>
</linearGradient>
<clipPath id="clip0_101_2">
<rect width="79" height="80" fill="white"/>
</clipPath>
</defs>
</svg>
