<svg xmlns="http://www.w3.org/2000/svg" width="79" height="80" fill="none" viewBox="0 0 79 80"><g clip-path="url(#clip0_101_222)"><path fill="#242424" d="M79 0H0V80H79V0Z"/><path fill="#FCC72B" d="M54.4032 30.5137L40.824 50.1473C40.6801 50.3555 40.4719 50.5114 40.231 50.5915C39.9901 50.6715 39.7298 50.6708 39.4894 50.5904C39.249 50.5096 39.0418 50.3529 38.8991 50.1443C38.7564 49.9354 38.686 49.6859 38.6987 49.4338L39.2422 38.594L30.4686 36.7333C30.2811 36.6936 30.1064 36.6084 29.96 36.4853C29.8136 36.3623 29.6999 36.2052 29.6291 36.0279C29.5583 35.8505 29.5326 35.6585 29.5542 35.4688C29.5757 35.2791 29.6439 35.0976 29.7527 34.9402L43.332 15.3066C43.476 15.0983 43.6842 14.9424 43.9251 14.8625C44.166 14.7826 44.4263 14.783 44.6668 14.8637C44.9071 14.9444 45.1144 15.1011 45.2571 15.3098C45.3997 15.5186 45.4701 15.768 45.4573 16.0204L44.9139 26.8603L53.6873 28.7208C53.8748 28.7605 54.0496 28.8457 54.1961 28.9687C54.3427 29.0918 54.4561 29.2489 54.5268 29.4263C54.5978 29.6036 54.6234 29.7956 54.6019 29.9853C54.5805 30.175 54.5121 30.3564 54.4032 30.5137Z"/><path fill="#729B1B" d="M40.1828 66.6198C39.8216 66.6202 39.464 66.5495 39.1303 66.4112C38.7966 66.273 38.4935 66.07 38.2385 65.8145L25.4077 52.9847C24.8944 52.4688 24.6067 51.7702 24.6077 51.0424C24.6086 50.3145 24.8982 49.6164 25.4129 49.102C25.9276 48.5872 26.6254 48.2975 27.3533 48.2963C28.0812 48.2956 28.7798 48.583 29.2959 49.0963L40.1828 59.982L63.9 36.2659C64.4171 35.7572 65.1141 35.4735 65.8393 35.4764C66.5649 35.4794 67.2597 35.7688 67.7722 36.2817C68.2851 36.7946 68.5748 37.4893 68.5778 38.2147C68.5805 38.94 68.2968 39.6371 67.788 40.1541L42.1267 65.8145C41.8717 66.0704 41.5687 66.273 41.2351 66.4112C40.9015 66.5495 40.5439 66.6202 40.1828 66.6198Z"/><path fill="#729B1B" fill-opacity=".5" d="M40.1719 66.6198C40.533 66.6202 40.8907 66.5495 41.2244 66.4112C41.5581 66.273 41.8611 66.07 42.1162 65.8145L54.9469 52.9847C55.4602 52.4688 55.7481 51.7702 55.7469 51.0424C55.7462 50.3145 55.4565 49.6164 54.9417 49.102C54.4269 48.5872 53.7291 48.2975 53.0013 48.2963C52.2734 48.2956 51.5749 48.583 51.0586 49.0963L40.1719 59.982L16.4547 36.2659C15.9376 35.7572 15.2405 35.4735 14.5152 35.4764C13.7899 35.4794 13.0951 35.7688 12.5823 36.2817C12.0694 36.7946 11.78 37.4893 11.777 38.2147C11.774 38.94 12.0578 39.6371 12.5665 40.1541L38.228 65.8145C38.483 66.0704 38.786 66.273 39.1196 66.4112C39.4532 66.5495 39.8108 66.6202 40.1719 66.6198Z"/></g><defs><clipPath id="clip0_101_222"><rect width="79" height="80" fill="#fff"/></clipPath></defs></svg>