<svg xmlns="http://www.w3.org/2000/svg" width="80" height="80" fill="none" viewBox="0 0 80 80"><g clip-path="url(#clip0_1_35)"><path fill="#242424" d="M80 0H0V80H80V0Z"/><path fill="url(#paint0_linear_1_35)" d="M69.4335 18.135L41.6094 68.6282C41.0349 69.6707 39.559 69.6768 38.9759 68.6394L10.6001 18.1398C9.9649 17.0093 10.9175 15.6399 12.1798 15.8689L40.0337 20.9216C40.2114 20.9538 40.3933 20.9535 40.571 20.9206L67.8424 15.8761C69.1005 15.6434 70.0576 17.0022 69.4335 18.135Z"/><path fill="url(#paint1_linear_1_35)" d="M53.302 9.24162L32.7114 13.3362C32.3729 13.4035 32.1224 13.6946 32.102 14.0439L30.8353 35.7536C30.8056 36.265 31.2683 36.6618 31.7601 36.5467L37.4928 35.2041C38.0292 35.0785 38.5138 35.558 38.4036 36.1054L36.7004 44.5694C36.5858 45.1391 37.1128 45.6262 37.6609 45.4572L41.2017 44.3655C41.7507 44.1964 42.2781 44.6848 42.162 45.255L39.4553 58.5501C39.2859 59.3818 40.3759 59.8353 40.8305 59.1223L41.1342 58.646L57.9126 24.6645C58.1935 24.0956 57.709 23.4468 57.0933 23.5674L51.1924 24.7231C50.6378 24.8316 50.166 24.3076 50.3226 23.757L54.174 10.2073C54.3306 9.65579 53.8572 9.13125 53.302 9.24162Z"/></g><defs><linearGradient id="paint0_linear_1_35" x1="9.907" x2="45.202" y1="14.064" y2="61.295" gradientUnits="userSpaceOnUse"><stop stop-color="#41D1FF"/><stop offset="1" stop-color="#BD34FE"/></linearGradient><linearGradient id="paint1_linear_1_35" x1="38.435" x2="44.883" y1="10.353" y2="53.937" gradientUnits="userSpaceOnUse"><stop stop-color="#FFEA83"/><stop offset=".083" stop-color="#FFDD35"/><stop offset="1" stop-color="#FFA800"/></linearGradient><clipPath id="clip0_1_35"><rect width="80" height="80" fill="#fff"/></clipPath></defs></svg>